<svg
   xmlns="http://www.w3.org/2000/svg"
   shape-rendering="crispEdges"
   viewBox="0 -0.5 60 60">
  <g id="add">
    <path
      d="M 28 -0.5 L 28 0.5 L 28 1.5 L 28 2.5 L 28 3.5 L 28 4.5 L 28 5.5 L 28 6.5 L 28 7.5 L 28 8.5 L 28 9.5 L 28 10.5 L 28 11.5 L 28 12.5 L 28 13.5 L 28 14.5 L 28 15.5 L 28 16.5 L 28 17.5 L 28 18.5 L 28 19.5 L 28 20.5 L 28 21.5 L 28 22.5 L 28 23.5 L 28 24.5 L 28 25.5 L 28 26.5 L 28 27.5 L 28 28.5 L 28 29.5 L 28 30.5 L 28 31.5 L 60 31.5 L 60 30.5 L 60 29.5 L 60 28.5 L 60 27.5 L 32 27.5 L 32 26.5 L 32 25.5 L 32 24.5 L 32 23.5 L 32 22.5 L 32 21.5 L 32 20.5 L 32 19.5 L 32 18.5 L 32 17.5 L 32 16.5 L 32 15.5 L 32 14.5 L 32 13.5 L 32 12.5 L 32 11.5 L 32 10.5 L 32 9.5 L 32 8.5 L 32 7.5 L 32 6.5 L 32 5.5 L 32 4.5 L 32 3.5 L 32 2.5 L 32 1.5 L 32 0.5 L 32 -0.5 L 28 -0.5 z M 0 27.5 L 0 28.5 L 0 29.5 L 0 30.5 L 0 31.5 L 24 31.5 L 24 30.5 L 24 29.5 L 24 28.5 L 24 27.5 L 0 27.5 z M 28 35.5 L 28 36.5 L 28 37.5 L 28 38.5 L 28 39.5 L 28 40.5 L 28 41.5 L 28 42.5 L 28 43.5 L 28 44.5 L 28 45.5 L 28 46.5 L 28 47.5 L 28 48.5 L 28 49.5 L 28 50.5 L 28 51.5 L 28 52.5 L 28 53.5 L 28 54.5 L 28 55.5 L 28 56.5 L 28 57.5 L 28 58.5 L 28 59.5 L 32 59.5 L 32 58.5 L 32 57.5 L 32 56.5 L 32 55.5 L 32 54.5 L 32 53.5 L 32 52.5 L 32 51.5 L 32 50.5 L 32 49.5 L 32 48.5 L 32 47.5 L 32 46.5 L 32 45.5 L 32 44.5 L 32 43.5 L 32 42.5 L 32 41.5 L 32 40.5 L 32 39.5 L 32 38.5 L 32 37.5 L 32 36.5 L 32 35.5 L 28 35.5 z "
    />
  </g>
</svg>
