<svg
   xmlns="http://www.w3.org/2000/svg"
   shape-rendering="crispEdges"
   viewBox="0 -0.5 60 60">
  <g id="g19">
    <path
       fill="#000000"
       d="M 0 -0.5 L 0 0.5 L 0 1.5 L 0 2.5 L 0 3.5 L 4 3.5 L 4 2.5 L 4 1.5 L 4 0.5 L 4 -0.5 L 0 -0.5 z M 4 3.5 L 4 4.5 L 4 5.5 L 4 6.5 L 4 7.5 L 8 7.5 L 8 6.5 L 8 5.5 L 8 4.5 L 8 3.5 L 4 3.5 z M 8 7.5 L 8 8.5 L 8 9.5 L 8 10.5 L 8 11.5 L 12 11.5 L 12 10.5 L 12 9.5 L 12 8.5 L 12 7.5 L 8 7.5 z M 12 11.5 L 12 12.5 L 12 13.5 L 12 14.5 L 12 15.5 L 16 15.5 L 16 14.5 L 16 13.5 L 16 12.5 L 16 11.5 L 12 11.5 z M 16 15.5 L 16 16.5 L 16 17.5 L 16 18.5 L 16 19.5 L 20 19.5 L 20 18.5 L 20 17.5 L 20 16.5 L 20 15.5 L 16 15.5 z M 20 19.5 L 20 20.5 L 20 21.5 L 20 22.5 L 20 23.5 L 24 23.5 L 24 22.5 L 24 21.5 L 24 20.5 L 24 19.5 L 20 19.5 z M 24 23.5 L 24 24.5 L 24 25.5 L 24 26.5 L 24 27.5 L 28 27.5 L 28 26.5 L 28 25.5 L 28 24.5 L 28 23.5 L 24 23.5 z M 28 27.5 L 28 28.5 L 28 29.5 L 28 30.5 L 28 31.5 L 32 31.5 L 32 30.5 L 32 29.5 L 32 28.5 L 32 27.5 L 28 27.5 z M 28 31.5 L 24 31.5 L 24 32.5 L 24 33.5 L 24 34.5 L 24 35.5 L 28 35.5 L 28 34.5 L 28 33.5 L 28 32.5 L 28 31.5 z M 24 35.5 L 20 35.5 L 20 36.5 L 20 37.5 L 20 38.5 L 20 39.5 L 24 39.5 L 24 38.5 L 24 37.5 L 24 36.5 L 24 35.5 z M 20 39.5 L 16 39.5 L 16 40.5 L 16 41.5 L 16 42.5 L 16 43.5 L 20 43.5 L 20 42.5 L 20 41.5 L 20 40.5 L 20 39.5 z M 16 43.5 L 12 43.5 L 12 44.5 L 12 45.5 L 12 46.5 L 12 47.5 L 16 47.5 L 16 46.5 L 16 45.5 L 16 44.5 L 16 43.5 z M 12 47.5 L 8 47.5 L 8 48.5 L 8 49.5 L 8 50.5 L 8 51.5 L 12 51.5 L 12 50.5 L 12 49.5 L 12 48.5 L 12 47.5 z M 8 51.5 L 4 51.5 L 4 52.5 L 4 53.5 L 4 54.5 L 4 55.5 L 8 55.5 L 8 54.5 L 8 53.5 L 8 52.5 L 8 51.5 z M 4 55.5 L 0 55.5 L 0 56.5 L 0 57.5 L 0 58.5 L 0 59.5 L 4 59.5 L 4 58.5 L 4 57.5 L 4 56.5 L 4 55.5 z M 56 -0.5 L 56 0.5 L 56 1.5 L 56 2.5 L 56 3.5 L 60 3.5 L 60 2.5 L 60 1.5 L 60 0.5 L 60 -0.5 L 56 -0.5 z M 56 3.5 L 52 3.5 L 52 4.5 L 52 5.5 L 52 6.5 L 52 7.5 L 56 7.5 L 56 6.5 L 56 5.5 L 56 4.5 L 56 3.5 z M 52 7.5 L 48 7.5 L 48 8.5 L 48 9.5 L 48 10.5 L 48 11.5 L 52 11.5 L 52 10.5 L 52 9.5 L 52 8.5 L 52 7.5 z M 48 11.5 L 44 11.5 L 44 12.5 L 44 13.5 L 44 14.5 L 44 15.5 L 48 15.5 L 48 14.5 L 48 13.5 L 48 12.5 L 48 11.5 z M 44 15.5 L 40 15.5 L 40 16.5 L 40 17.5 L 40 18.5 L 40 19.5 L 44 19.5 L 44 18.5 L 44 17.5 L 44 16.5 L 44 15.5 z M 40 19.5 L 36 19.5 L 36 20.5 L 36 21.5 L 36 22.5 L 36 23.5 L 40 23.5 L 40 22.5 L 40 21.5 L 40 20.5 L 40 19.5 z M 36 35.5 L 36 36.5 L 36 37.5 L 36 38.5 L 36 39.5 L 40 39.5 L 40 38.5 L 40 37.5 L 40 36.5 L 40 35.5 L 36 35.5 z M 40 39.5 L 40 40.5 L 40 41.5 L 40 42.5 L 40 43.5 L 44 43.5 L 44 42.5 L 44 41.5 L 44 40.5 L 44 39.5 L 40 39.5 z M 44 43.5 L 44 44.5 L 44 45.5 L 44 46.5 L 44 47.5 L 48 47.5 L 48 46.5 L 48 45.5 L 48 44.5 L 48 43.5 L 44 43.5 z M 48 47.5 L 48 48.5 L 48 49.5 L 48 50.5 L 48 51.5 L 52 51.5 L 52 50.5 L 52 49.5 L 52 48.5 L 52 47.5 L 48 47.5 z M 52 51.5 L 52 52.5 L 52 53.5 L 52 54.5 L 52 55.5 L 56 55.5 L 56 54.5 L 56 53.5 L 56 52.5 L 56 51.5 L 52 51.5 z M 56 55.5 L 56 56.5 L 56 57.5 L 56 58.5 L 56 59.5 L 60 59.5 L 60 58.5 L 60 57.5 L 60 56.5 L 60 55.5 L 56 55.5 z "
    />
  </g>
</svg>
