<svg
   xmlns="http://www.w3.org/2000/svg"
   shape-rendering="crispEdges"
   viewBox="0 -0.5 60 60">
  <g id="group">
    <path
      d="M 12 3.5 L 12 4.5 L 12 5.5 L 12 6.5 L 12 7.5 L 20 7.5 L 20 6.5 L 20 5.5 L 20 4.5 L 20 3.5 L 12 3.5 z M 12 7.5 L 8 7.5 L 8 8.5 L 8 9.5 L 8 10.5 L 8 11.5 L 12 11.5 L 12 10.5 L 12 9.5 L 12 8.5 L 12 7.5 z M 8 11.5 L 4 11.5 L 4 12.5 L 4 13.5 L 4 14.5 L 4 15.5 L 4 16.5 L 4 17.5 L 4 18.5 L 4 19.5 L 4 20.5 L 4 21.5 L 4 22.5 L 4 23.5 L 4 24.5 L 4 25.5 L 4 26.5 L 4 27.5 L 4 28.5 L 4 29.5 L 4 30.5 L 4 31.5 L 8 31.5 L 8 30.5 L 8 29.5 L 8 28.5 L 8 27.5 L 8 26.5 L 8 25.5 L 8 24.5 L 8 23.5 L 8 22.5 L 8 21.5 L 8 20.5 L 8 19.5 L 8 18.5 L 8 17.5 L 8 16.5 L 8 15.5 L 8 14.5 L 8 13.5 L 8 12.5 L 8 11.5 z M 8 31.5 L 8 32.5 L 8 33.5 L 8 34.5 L 8 35.5 L 12 35.5 L 12 34.5 L 12 33.5 L 12 32.5 L 12 31.5 L 8 31.5 z M 12 35.5 L 12 36.5 L 12 37.5 L 12 38.5 L 12 39.5 L 16 39.5 L 16 38.5 L 16 37.5 L 16 36.5 L 16 35.5 L 12 35.5 z M 12 39.5 L 8 39.5 L 8 40.5 L 8 41.5 L 8 42.5 L 8 43.5 L 12 43.5 L 12 42.5 L 12 41.5 L 12 40.5 L 12 39.5 z M 8 43.5 L 4 43.5 L 4 44.5 L 4 45.5 L 4 46.5 L 4 47.5 L 8 47.5 L 8 46.5 L 8 45.5 L 8 44.5 L 8 43.5 z M 4 47.5 L 0 47.5 L 0 48.5 L 0 49.5 L 0 50.5 L 0 51.5 L 0 52.5 L 0 53.5 L 0 54.5 L 0 55.5 L 0 56.5 L 0 57.5 L 0 58.5 L 0 59.5 L 4 59.5 L 4 58.5 L 4 57.5 L 4 56.5 L 4 55.5 L 4 54.5 L 4 53.5 L 4 52.5 L 4 51.5 L 4 50.5 L 4 49.5 L 4 48.5 L 4 47.5 z M 28 3.5 L 28 4.5 L 28 5.5 L 28 6.5 L 28 7.5 L 48 7.5 L 48 6.5 L 48 5.5 L 48 4.5 L 48 3.5 L 28 3.5 z M 48 7.5 L 48 8.5 L 48 9.5 L 48 10.5 L 48 11.5 L 52 11.5 L 52 10.5 L 52 9.5 L 52 8.5 L 52 7.5 L 48 7.5 z M 52 11.5 L 52 12.5 L 52 13.5 L 52 14.5 L 52 15.5 L 52 16.5 L 52 17.5 L 52 18.5 L 52 19.5 L 52 20.5 L 52 21.5 L 52 22.5 L 52 23.5 L 52 24.5 L 52 25.5 L 52 26.5 L 52 27.5 L 52 28.5 L 52 29.5 L 52 30.5 L 52 31.5 L 56 31.5 L 56 30.5 L 56 29.5 L 56 28.5 L 56 27.5 L 56 26.5 L 56 25.5 L 56 24.5 L 56 23.5 L 56 22.5 L 56 21.5 L 56 20.5 L 56 19.5 L 56 18.5 L 56 17.5 L 56 16.5 L 56 15.5 L 56 14.5 L 56 13.5 L 56 12.5 L 56 11.5 L 52 11.5 z M 52 31.5 L 48 31.5 L 48 32.5 L 48 33.5 L 48 34.5 L 48 35.5 L 52 35.5 L 52 34.5 L 52 33.5 L 52 32.5 L 52 31.5 z M 48 35.5 L 44 35.5 L 44 36.5 L 44 37.5 L 44 38.5 L 44 39.5 L 48 39.5 L 48 38.5 L 48 37.5 L 48 36.5 L 48 35.5 z M 48 39.5 L 48 40.5 L 48 41.5 L 48 42.5 L 48 43.5 L 52 43.5 L 52 42.5 L 52 41.5 L 52 40.5 L 52 39.5 L 48 39.5 z M 52 43.5 L 52 44.5 L 52 45.5 L 52 46.5 L 52 47.5 L 56 47.5 L 56 46.5 L 56 45.5 L 56 44.5 L 56 43.5 L 52 43.5 z M 56 47.5 L 56 48.5 L 56 49.5 L 56 50.5 L 56 51.5 L 56 52.5 L 56 53.5 L 56 54.5 L 56 55.5 L 56 56.5 L 56 57.5 L 56 58.5 L 56 59.5 L 60 59.5 L 60 58.5 L 60 57.5 L 60 56.5 L 60 55.5 L 60 54.5 L 60 53.5 L 60 52.5 L 60 51.5 L 60 50.5 L 60 49.5 L 60 48.5 L 60 47.5 L 56 47.5 z M 28 7.5 L 24 7.5 L 24 8.5 L 24 9.5 L 24 10.5 L 24 11.5 L 28 11.5 L 28 10.5 L 28 9.5 L 28 8.5 L 28 7.5 z M 24 11.5 L 20 11.5 L 20 12.5 L 20 13.5 L 20 14.5 L 20 15.5 L 20 16.5 L 20 17.5 L 20 18.5 L 20 19.5 L 20 20.5 L 20 21.5 L 20 22.5 L 20 23.5 L 20 24.5 L 20 25.5 L 20 26.5 L 20 27.5 L 20 28.5 L 20 29.5 L 20 30.5 L 20 31.5 L 24 31.5 L 24 30.5 L 24 29.5 L 24 28.5 L 24 27.5 L 24 26.5 L 24 25.5 L 24 24.5 L 24 23.5 L 24 22.5 L 24 21.5 L 24 20.5 L 24 19.5 L 24 18.5 L 24 17.5 L 24 16.5 L 24 15.5 L 24 14.5 L 24 13.5 L 24 12.5 L 24 11.5 z M 24 31.5 L 24 32.5 L 24 33.5 L 24 34.5 L 24 35.5 L 28 35.5 L 28 34.5 L 28 33.5 L 28 32.5 L 28 31.5 L 24 31.5 z M 28 35.5 L 28 36.5 L 28 37.5 L 28 38.5 L 28 39.5 L 32 39.5 L 32 38.5 L 32 37.5 L 32 36.5 L 32 35.5 L 28 35.5 z M 28 39.5 L 24 39.5 L 24 40.5 L 24 41.5 L 24 42.5 L 24 43.5 L 28 43.5 L 28 42.5 L 28 41.5 L 28 40.5 L 28 39.5 z M 24 43.5 L 20 43.5 L 20 44.5 L 20 45.5 L 20 46.5 L 20 47.5 L 24 47.5 L 24 46.5 L 24 45.5 L 24 44.5 L 24 43.5 z M 20 47.5 L 16 47.5 L 16 48.5 L 16 49.5 L 16 50.5 L 16 51.5 L 16 52.5 L 16 53.5 L 16 54.5 L 16 55.5 L 16 56.5 L 16 57.5 L 16 58.5 L 16 59.5 L 20 59.5 L 20 58.5 L 20 57.5 L 20 56.5 L 20 55.5 L 20 54.5 L 20 53.5 L 20 52.5 L 20 51.5 L 20 50.5 L 20 49.5 L 20 48.5 L 20 47.5 z "
    />
  </g>
</svg>
