<svg
   xmlns="http://www.w3.org/2000/svg"
   shape-rendering="crispEdges"
   viewBox="0 -0.5 60 60">
  <g id="headphones">
    <path
      id="main"
      d="M 20 -0.5 L 20 0.5 L 20 1.5 L 20 2.5 L 20 3.5 L 40 3.5 L 40 2.5 L 40 1.5 L 40 0.5 L 40 -0.5 L 20 -0.5 z M 40 3.5 L 40 4.5 L 40 5.5 L 40 6.5 L 40 7.5 L 48 7.5 L 48 6.5 L 48 5.5 L 48 4.5 L 48 3.5 L 40 3.5 z M 48 7.5 L 48 8.5 L 48 9.5 L 48 10.5 L 48 11.5 L 52 11.5 L 52 10.5 L 52 9.5 L 52 8.5 L 52 7.5 L 48 7.5 z M 52 11.5 L 52 12.5 L 52 13.5 L 52 14.5 L 52 15.5 L 52 16.5 L 52 17.5 L 52 18.5 L 52 19.5 L 56 19.5 L 56 18.5 L 56 17.5 L 56 16.5 L 56 15.5 L 56 14.5 L 56 13.5 L 56 12.5 L 56 11.5 L 52 11.5 z M 56 19.5 L 56 20.5 L 56 21.5 L 56 22.5 L 56 23.5 L 56 24.5 L 56 25.5 L 56 26.5 L 56 27.5 L 56 28.5 L 56 29.5 L 56 30.5 L 56 31.5 L 56 32.5 L 56 33.5 L 56 34.5 L 56 35.5 L 56 36.5 L 56 37.5 L 56 38.5 L 56 39.5 L 44 39.5 L 44 40.5 L 44 41.5 L 44 42.5 L 44 43.5 L 44 44.5 L 44 45.5 L 44 46.5 L 44 47.5 L 44 48.5 L 44 49.5 L 44 50.5 L 44 51.5 L 44 52.5 L 44 53.5 L 44 54.5 L 44 55.5 L 44 56.5 L 44 57.5 L 44 58.5 L 44 59.5 L 56 59.5 L 56 58.5 L 56 57.5 L 56 56.5 L 56 55.5 L 48 55.5 L 48 54.5 L 48 53.5 L 48 52.5 L 48 51.5 L 48 50.5 L 48 49.5 L 48 48.5 L 48 47.5 L 48 46.5 L 48 45.5 L 48 44.5 L 48 43.5 L 56 43.5 L 56 44.5 L 56 45.5 L 56 46.5 L 56 47.5 L 56 48.5 L 56 49.5 L 56 50.5 L 56 51.5 L 56 52.5 L 56 53.5 L 56 54.5 L 56 55.5 L 60 55.5 L 60 54.5 L 60 53.5 L 60 52.5 L 60 51.5 L 60 50.5 L 60 49.5 L 60 48.5 L 60 47.5 L 60 46.5 L 60 45.5 L 60 44.5 L 60 43.5 L 60 42.5 L 60 41.5 L 60 40.5 L 60 39.5 L 60 38.5 L 60 37.5 L 60 36.5 L 60 35.5 L 60 34.5 L 60 33.5 L 60 32.5 L 60 31.5 L 60 30.5 L 60 29.5 L 60 28.5 L 60 27.5 L 60 26.5 L 60 25.5 L 60 24.5 L 60 23.5 L 60 22.5 L 60 21.5 L 60 20.5 L 60 19.5 L 56 19.5 z M 20 3.5 L 12 3.5 L 12 4.5 L 12 5.5 L 12 6.5 L 12 7.5 L 20 7.5 L 20 6.5 L 20 5.5 L 20 4.5 L 20 3.5 z M 12 7.5 L 8 7.5 L 8 8.5 L 8 9.5 L 8 10.5 L 8 11.5 L 12 11.5 L 12 10.5 L 12 9.5 L 12 8.5 L 12 7.5 z M 8 11.5 L 4 11.5 L 4 12.5 L 4 13.5 L 4 14.5 L 4 15.5 L 4 16.5 L 4 17.5 L 4 18.5 L 4 19.5 L 8 19.5 L 8 18.5 L 8 17.5 L 8 16.5 L 8 15.5 L 8 14.5 L 8 13.5 L 8 12.5 L 8 11.5 z M 4 19.5 L 0 19.5 L 0 20.5 L 0 21.5 L 0 22.5 L 0 23.5 L 0 24.5 L 0 25.5 L 0 26.5 L 0 27.5 L 0 28.5 L 0 29.5 L 0 30.5 L 0 31.5 L 0 32.5 L 0 33.5 L 0 34.5 L 0 35.5 L 0 36.5 L 0 37.5 L 0 38.5 L 0 39.5 L 0 40.5 L 0 41.5 L 0 42.5 L 0 43.5 L 0 44.5 L 0 45.5 L 0 46.5 L 0 47.5 L 0 48.5 L 0 49.5 L 0 50.5 L 0 51.5 L 0 52.5 L 0 53.5 L 0 54.5 L 0 55.5 L 4 55.5 L 4 54.5 L 4 53.5 L 4 52.5 L 4 51.5 L 4 50.5 L 4 49.5 L 4 48.5 L 4 47.5 L 4 46.5 L 4 45.5 L 4 44.5 L 4 43.5 L 12 43.5 L 12 44.5 L 12 45.5 L 12 46.5 L 12 47.5 L 12 48.5 L 12 49.5 L 12 50.5 L 12 51.5 L 12 52.5 L 12 53.5 L 12 54.5 L 12 55.5 L 4 55.5 L 4 56.5 L 4 57.5 L 4 58.5 L 4 59.5 L 16 59.5 L 16 58.5 L 16 57.5 L 16 56.5 L 16 55.5 L 16 54.5 L 16 53.5 L 16 52.5 L 16 51.5 L 16 50.5 L 16 49.5 L 16 48.5 L 16 47.5 L 16 46.5 L 16 45.5 L 16 44.5 L 16 43.5 L 16 42.5 L 16 41.5 L 16 40.5 L 16 39.5 L 4 39.5 L 4 38.5 L 4 37.5 L 4 36.5 L 4 35.5 L 4 34.5 L 4 33.5 L 4 32.5 L 4 31.5 L 4 30.5 L 4 29.5 L 4 28.5 L 4 27.5 L 4 26.5 L 4 25.5 L 4 24.5 L 4 23.5 L 4 22.5 L 4 21.5 L 4 20.5 L 4 19.5 z "
    />
  </g>
</svg>
