<?xml version="1.0" encoding="UTF-8" standalone="no"?>
<svg
   xmlns="http://www.w3.org/2000/svg"
   shape-rendering="crispEdges"
   viewBox="0 -0.5 60 60">
  <g id="home">
    <path
       id="main"
       d="M 28 -0.5 L 28 0.5 L 28 1.5 L 28 2.5 L 28 3.5 L 24 3.5 L 24 4.5 L 24 5.5 L 24 6.5 L 24 7.5 L 20 7.5 L 20 8.5 L 20 9.5 L 20 10.5 L 20 11.5 L 16 11.5 L 16 12.5 L 16 13.5 L 16 14.5 L 16 15.5 L 12 15.5 L 12 16.5 L 12 17.5 L 12 18.5 L 12 19.5 L 8 19.5 L 8 20.5 L 8 21.5 L 8 22.5 L 8 23.5 L 4 23.5 L 4 24.5 L 4 25.5 L 4 26.5 L 4 27.5 L 0 27.5 L 0 28.5 L 0 29.5 L 0 30.5 L 0 31.5 L 8 31.5 L 8 32.5 L 8 33.5 L 8 34.5 L 8 35.5 L 8 36.5 L 8 37.5 L 8 38.5 L 8 39.5 L 8 40.5 L 8 41.5 L 8 42.5 L 8 43.5 L 8 44.5 L 8 45.5 L 8 46.5 L 8 47.5 L 8 48.5 L 8 49.5 L 8 50.5 L 8 51.5 L 8 52.5 L 8 53.5 L 8 54.5 L 8 55.5 L 8 56.5 L 8 57.5 L 8 58.5 L 8 59.5 L 25 59.5 L 25 58.5 L 25 57.5 L 25 56.5 L 25 55.5 L 25 54.5 L 25 53.5 L 25 52.5 L 25 51.5 L 25 50.5 L 25 49.5 L 25 48.5 L 25 47.5 L 25 46.5 L 25 45.5 L 25 44.5 L 25 43.5 L 25 42.5 L 35 42.5 L 35 43.5 L 35 44.5 L 35 45.5 L 35 46.5 L 35 47.5 L 35 48.5 L 35 49.5 L 35 50.5 L 35 51.5 L 35 52.5 L 35 53.5 L 35 54.5 L 35 55.5 L 35 56.5 L 35 57.5 L 35 58.5 L 35 59.5 L 52 59.5 L 52 58.5 L 52 57.5 L 52 56.5 L 52 55.5 L 52 54.5 L 52 53.5 L 52 52.5 L 52 51.5 L 52 50.5 L 52 49.5 L 52 48.5 L 52 47.5 L 52 46.5 L 52 45.5 L 52 44.5 L 52 43.5 L 52 42.5 L 52 41.5 L 52 40.5 L 52 39.5 L 52 38.5 L 52 37.5 L 52 36.5 L 52 35.5 L 52 34.5 L 52 33.5 L 52 32.5 L 52 31.5 L 60 31.5 L 60 30.5 L 60 29.5 L 60 28.5 L 60 27.5 L 56 27.5 L 56 26.5 L 56 25.5 L 56 24.5 L 56 23.5 L 52 23.5 L 52 22.5 L 52 21.5 L 52 20.5 L 52 19.5 L 48 19.5 L 48 18.5 L 48 17.5 L 48 16.5 L 48 15.5 L 44 15.5 L 44 14.5 L 44 13.5 L 44 12.5 L 44 11.5 L 40 11.5 L 40 10.5 L 40 9.5 L 40 8.5 L 40 7.5 L 36 7.5 L 36 6.5 L 36 5.5 L 36 4.5 L 36 3.5 L 32 3.5 L 32 2.5 L 32 1.5 L 32 0.5 L 32 -0.5 L 28 -0.5 z "
    />
  </g>
</svg>
