<svg
   xmlns="http://www.w3.org/2000/svg"
   shape-rendering="crispEdges"
   viewBox="0 -0.5 60 60">
  <g id="g19">
    <path
      fill="#000000"
      d="M 0 11.5 L 0 12.5 L 0 13.5 L 0 14.5 L 0 15.5 L 4 15.5 L 4 14.5 L 4 13.5 L 4 12.5 L 4 11.5 L 0 11.5 z M 4 15.5 L 4 16.5 L 4 17.5 L 4 18.5 L 4 19.5 L 12 19.5 L 12 18.5 L 12 17.5 L 12 16.5 L 12 15.5 L 4 15.5 z M 12 19.5 L 12 20.5 L 12 21.5 L 12 22.5 L 12 23.5 L 20 23.5 L 20 22.5 L 20 21.5 L 20 20.5 L 20 19.5 L 12 19.5 z M 20 23.5 L 20 24.5 L 20 25.5 L 20 26.5 L 20 27.5 L 28 27.5 L 28 26.5 L 28 25.5 L 28 24.5 L 28 23.5 L 20 23.5 z M 28 27.5 L 28 28.5 L 28 29.5 L 28 30.5 L 28 31.5 L 32 31.5 L 32 30.5 L 32 29.5 L 32 28.5 L 32 27.5 L 28 27.5 z M 28 31.5 L 20 31.5 L 20 32.5 L 20 33.5 L 20 34.5 L 20 35.5 L 28 35.5 L 28 34.5 L 28 33.5 L 28 32.5 L 28 31.5 z M 20 35.5 L 12 35.5 L 12 36.5 L 12 37.5 L 12 38.5 L 12 39.5 L 20 39.5 L 20 38.5 L 20 37.5 L 20 36.5 L 20 35.5 z M 12 39.5 L 4 39.5 L 4 40.5 L 4 41.5 L 4 42.5 L 4 43.5 L 12 43.5 L 12 42.5 L 12 41.5 L 12 40.5 L 12 39.5 z M 4 43.5 L 0 43.5 L 0 44.5 L 0 45.5 L 0 46.5 L 0 47.5 L 4 47.5 L 4 46.5 L 4 45.5 L 4 44.5 L 4 43.5 z M 0 23.5 L 0 24.5 L 0 25.5 L 0 26.5 L 0 27.5 L 8 27.5 L 8 26.5 L 8 25.5 L 8 24.5 L 8 23.5 L 0 23.5 z M 8 27.5 L 8 28.5 L 8 29.5 L 8 30.5 L 8 31.5 L 16 31.5 L 16 30.5 L 16 29.5 L 16 28.5 L 16 27.5 L 8 27.5 z M 8 31.5 L 0 31.5 L 0 32.5 L 0 33.5 L 0 34.5 L 0 35.5 L 8 35.5 L 8 34.5 L 8 33.5 L 8 32.5 L 8 31.5 z "
    />
  </g>
</svg>
