<svg
   xmlns="http://www.w3.org/2000/svg"
   shape-rendering="crispEdges"
   viewBox="0 -0.5 60 60">
  <g id="g19">
    <path
       fill="#000000"
       d="M 0 7.5 L 0 8.5 L 0 9.5 L 0 10.5 L 0 11.5 L 4 11.5 L 4 12.5 L 4 13.5 L 4 14.5 L 4 15.5 L 8 15.5 L 8 16.5 L 8 17.5 L 8 18.5 L 8 19.5 L 8 20.5 L 8 21.5 L 8 22.5 L 8 23.5 L 8 24.5 L 8 25.5 L 8 26.5 L 8 27.5 L 8 28.5 L 8 29.5 L 8 30.5 L 8 31.5 L 8 32.5 L 8 33.5 L 8 34.5 L 8 35.5 L 8 36.5 L 8 37.5 L 8 38.5 L 8 39.5 L 12 39.5 L 12 40.5 L 12 41.5 L 12 42.5 L 12 43.5 L 12 44.5 L 12 45.5 L 12 46.5 L 12 47.5 L 16 47.5 L 16 48.5 L 16 49.5 L 16 50.5 L 16 51.5 L 20 51.5 L 20 50.5 L 20 49.5 L 20 48.5 L 20 47.5 L 24 47.5 L 24 48.5 L 24 49.5 L 24 50.5 L 24 51.5 L 28 51.5 L 28 50.5 L 28 49.5 L 28 48.5 L 28 47.5 L 32 47.5 L 32 48.5 L 32 49.5 L 32 50.5 L 32 51.5 L 36 51.5 L 36 50.5 L 36 49.5 L 36 48.5 L 36 47.5 L 40 47.5 L 40 48.5 L 40 49.5 L 40 50.5 L 40 51.5 L 44 51.5 L 44 50.5 L 44 49.5 L 44 48.5 L 44 47.5 L 48 47.5 L 48 46.5 L 48 45.5 L 48 44.5 L 48 43.5 L 48 42.5 L 48 41.5 L 48 40.5 L 48 39.5 L 52 39.5 L 52 38.5 L 52 37.5 L 52 36.5 L 52 35.5 L 52 34.5 L 52 33.5 L 52 32.5 L 52 31.5 L 52 30.5 L 52 29.5 L 52 28.5 L 52 27.5 L 52 26.5 L 52 25.5 L 52 24.5 L 52 23.5 L 52 22.5 L 52 21.5 L 52 20.5 L 52 19.5 L 52 18.5 L 52 17.5 L 52 16.5 L 52 15.5 L 56 15.5 L 56 14.5 L 56 13.5 L 56 12.5 L 56 11.5 L 60 11.5 L 60 10.5 L 60 9.5 L 60 8.5 L 60 7.5 L 48 7.5 L 48 8.5 L 48 9.5 L 48 10.5 L 48 11.5 L 40 11.5 L 40 12.5 L 40 13.5 L 40 14.5 L 40 15.5 L 36 15.5 L 36 16.5 L 36 17.5 L 36 18.5 L 36 19.5 L 24 19.5 L 24 18.5 L 24 17.5 L 24 16.5 L 24 15.5 L 20 15.5 L 20 14.5 L 20 13.5 L 20 12.5 L 20 11.5 L 12 11.5 L 12 10.5 L 12 9.5 L 12 8.5 L 12 7.5 L 0 7.5 z M 12 27.5 L 24 27.5 L 24 28.5 L 24 29.5 L 24 30.5 L 24 31.5 L 20 31.5 L 20 32.5 L 20 33.5 L 20 34.5 L 20 35.5 L 16 35.5 L 16 34.5 L 16 33.5 L 16 32.5 L 16 31.5 L 12 31.5 L 12 30.5 L 12 29.5 L 12 28.5 L 12 27.5 z M 36 27.5 L 48 27.5 L 48 28.5 L 48 29.5 L 48 30.5 L 48 31.5 L 44 31.5 L 44 32.5 L 44 33.5 L 44 34.5 L 44 35.5 L 40 35.5 L 40 34.5 L 40 33.5 L 40 32.5 L 40 31.5 L 36 31.5 L 36 30.5 L 36 29.5 L 36 28.5 L 36 27.5 z "
      />
  </g>
</svg>
