<svg
   xmlns="http://www.w3.org/2000/svg"
   shape-rendering="crispEdges"
   viewBox="0 -0.5 60 60">
  <g id="g19">
    <path
      fill="#000000"
      d="M 20 -0.5 L 20 0.5 L 20 1.5 L 20 2.5 L 20 3.5 L 40 3.5 L 40 2.5 L 40 1.5 L 40 0.5 L 40 -0.5 L 20 -0.5 z M 40 3.5 L 40 4.5 L 40 5.5 L 40 6.5 L 40 7.5 L 48 7.5 L 48 6.5 L 48 5.5 L 48 4.5 L 48 3.5 L 40 3.5 z M 48 7.5 L 48 8.5 L 48 9.5 L 48 10.5 L 48 11.5 L 52 11.5 L 52 10.5 L 52 9.5 L 52 8.5 L 52 7.5 L 48 7.5 z M 52 11.5 L 52 12.5 L 52 13.5 L 52 14.5 L 52 15.5 L 52 16.5 L 52 17.5 L 52 18.5 L 52 19.5 L 56 19.5 L 56 18.5 L 56 17.5 L 56 16.5 L 56 15.5 L 56 14.5 L 56 13.5 L 56 12.5 L 56 11.5 L 52 11.5 z M 56 19.5 L 56 20.5 L 56 21.5 L 56 22.5 L 56 23.5 L 56 24.5 L 56 25.5 L 56 26.5 L 56 27.5 L 56 28.5 L 56 29.5 L 56 30.5 L 56 31.5 L 56 32.5 L 56 33.5 L 56 34.5 L 56 35.5 L 60 35.5 L 60 34.5 L 60 33.5 L 60 32.5 L 60 31.5 L 60 30.5 L 60 29.5 L 60 28.5 L 60 27.5 L 60 26.5 L 60 25.5 L 60 24.5 L 60 23.5 L 60 22.5 L 60 21.5 L 60 20.5 L 60 19.5 L 56 19.5 z M 56 35.5 L 52 35.5 L 52 36.5 L 52 37.5 L 52 38.5 L 52 39.5 L 56 39.5 L 56 38.5 L 56 37.5 L 56 36.5 L 56 35.5 z M 52 39.5 L 44 39.5 L 44 38.5 L 44 37.5 L 44 36.5 L 44 35.5 L 44 34.5 L 44 33.5 L 44 32.5 L 44 31.5 L 44 30.5 L 44 29.5 L 44 28.5 L 44 27.5 L 44 26.5 L 44 25.5 L 44 24.5 L 44 23.5 L 40 23.5 L 40 24.5 L 40 25.5 L 40 26.5 L 40 27.5 L 40 28.5 L 40 29.5 L 40 30.5 L 40 31.5 L 40 32.5 L 40 33.5 L 40 34.5 L 40 35.5 L 40 36.5 L 40 37.5 L 40 38.5 L 40 39.5 L 24 39.5 L 24 40.5 L 24 41.5 L 24 42.5 L 24 43.5 L 52 43.5 L 52 42.5 L 52 41.5 L 52 40.5 L 52 39.5 z M 24 39.5 L 24 38.5 L 24 37.5 L 24 36.5 L 24 35.5 L 20 35.5 L 20 36.5 L 20 37.5 L 20 38.5 L 20 39.5 L 24 39.5 z M 20 35.5 L 20 34.5 L 20 33.5 L 20 32.5 L 20 31.5 L 20 30.5 L 20 29.5 L 20 28.5 L 20 27.5 L 20 26.5 L 20 25.5 L 20 24.5 L 20 23.5 L 16 23.5 L 16 24.5 L 16 25.5 L 16 26.5 L 16 27.5 L 16 28.5 L 16 29.5 L 16 30.5 L 16 31.5 L 16 32.5 L 16 33.5 L 16 34.5 L 16 35.5 L 20 35.5 z M 20 23.5 L 24 23.5 L 24 22.5 L 24 21.5 L 24 20.5 L 24 19.5 L 20 19.5 L 20 20.5 L 20 21.5 L 20 22.5 L 20 23.5 z M 24 19.5 L 36 19.5 L 36 18.5 L 36 17.5 L 36 16.5 L 36 15.5 L 24 15.5 L 24 16.5 L 24 17.5 L 24 18.5 L 24 19.5 z M 36 19.5 L 36 20.5 L 36 21.5 L 36 22.5 L 36 23.5 L 40 23.5 L 40 22.5 L 40 21.5 L 40 20.5 L 40 19.5 L 36 19.5 z M 20 3.5 L 12 3.5 L 12 4.5 L 12 5.5 L 12 6.5 L 12 7.5 L 20 7.5 L 20 6.5 L 20 5.5 L 20 4.5 L 20 3.5 z M 12 7.5 L 8 7.5 L 8 8.5 L 8 9.5 L 8 10.5 L 8 11.5 L 12 11.5 L 12 10.5 L 12 9.5 L 12 8.5 L 12 7.5 z M 8 11.5 L 4 11.5 L 4 12.5 L 4 13.5 L 4 14.5 L 4 15.5 L 4 16.5 L 4 17.5 L 4 18.5 L 4 19.5 L 8 19.5 L 8 18.5 L 8 17.5 L 8 16.5 L 8 15.5 L 8 14.5 L 8 13.5 L 8 12.5 L 8 11.5 z M 4 19.5 L 0 19.5 L 0 20.5 L 0 21.5 L 0 22.5 L 0 23.5 L 0 24.5 L 0 25.5 L 0 26.5 L 0 27.5 L 0 28.5 L 0 29.5 L 0 30.5 L 0 31.5 L 0 32.5 L 0 33.5 L 0 34.5 L 0 35.5 L 0 36.5 L 0 37.5 L 0 38.5 L 0 39.5 L 4 39.5 L 4 38.5 L 4 37.5 L 4 36.5 L 4 35.5 L 4 34.5 L 4 33.5 L 4 32.5 L 4 31.5 L 4 30.5 L 4 29.5 L 4 28.5 L 4 27.5 L 4 26.5 L 4 25.5 L 4 24.5 L 4 23.5 L 4 22.5 L 4 21.5 L 4 20.5 L 4 19.5 z M 4 39.5 L 4 40.5 L 4 41.5 L 4 42.5 L 4 43.5 L 4 44.5 L 4 45.5 L 4 46.5 L 4 47.5 L 8 47.5 L 8 46.5 L 8 45.5 L 8 44.5 L 8 43.5 L 8 42.5 L 8 41.5 L 8 40.5 L 8 39.5 L 4 39.5 z M 8 47.5 L 8 48.5 L 8 49.5 L 8 50.5 L 8 51.5 L 12 51.5 L 12 50.5 L 12 49.5 L 12 48.5 L 12 47.5 L 8 47.5 z M 12 51.5 L 12 52.5 L 12 53.5 L 12 54.5 L 12 55.5 L 20 55.5 L 20 54.5 L 20 53.5 L 20 52.5 L 20 51.5 L 12 51.5 z M 20 55.5 L 20 56.5 L 20 57.5 L 20 58.5 L 20 59.5 L 40 59.5 L 40 58.5 L 40 57.5 L 40 56.5 L 40 55.5 L 20 55.5 z M 40 55.5 L 48 55.5 L 48 54.5 L 48 53.5 L 48 52.5 L 48 51.5 L 40 51.5 L 40 52.5 L 40 53.5 L 40 54.5 L 40 55.5 z M 48 51.5 L 52 51.5 L 52 50.5 L 52 49.5 L 52 48.5 L 52 47.5 L 48 47.5 L 48 48.5 L 48 49.5 L 48 50.5 L 48 51.5 z "
    />
  </g>
</svg>
