<?xml version="1.0" encoding="UTF-8" standalone="no"?>
<svg
   xmlns="http://www.w3.org/2000/svg"
   shape-rendering="crispEdges"
   viewBox="0 -0.5 60 60">
  <g id="menu-bars">
    <path
       id="main"
       d="M 0 3.5 L 0 4.5 L 0 5.5 L 0 6.5 L 0 7.5 L 0 8.5 L 0 9.5 L 0 10.5 L 0 11.5 L 60 11.5 L 60 10.5 L 60 9.5 L 60 8.5 L 60 7.5 L 60 6.5 L 60 5.5 L 60 4.5 L 60 3.5 L 0 3.5 z M 0 27.5 L 0 28.5 L 0 29.5 L 0 30.5 L 0 31.5 L 0 32.5 L 0 33.5 L 0 34.5 L 0 35.5 L 60 35.5 L 60 34.5 L 60 33.5 L 60 32.5 L 60 31.5 L 60 30.5 L 60 29.5 L 60 28.5 L 60 27.5 L 0 27.5 z M 0 51.5 L 0 52.5 L 0 53.5 L 0 54.5 L 0 55.5 L 0 56.5 L 0 57.5 L 0 58.5 L 0 59.5 L 60 59.5 L 60 58.5 L 60 57.5 L 60 56.5 L 60 55.5 L 60 54.5 L 60 53.5 L 60 52.5 L 60 51.5 L 0 51.5 z "
      />
  </g>
</svg>
