<svg
   xmlns="http://www.w3.org/2000/svg"
   shape-rendering="crispEdges"
   viewBox="0 -0.5 60 60">
  <g id="g19">
    <path
       fill="#000000"
       d="M 24 -0.5 L 24 0.5 L 24 1.5 L 24 2.5 L 24 3.5 L 24 4.5 L 24 5.5 L 24 6.5 L 24 7.5 L 24 8.5 L 24 9.5 L 24 10.5 L 24 11.5 L 36 11.5 L 36 10.5 L 36 9.5 L 36 8.5 L 36 7.5 L 36 6.5 L 36 5.5 L 36 4.5 L 36 3.5 L 36 2.5 L 36 1.5 L 36 0.5 L 36 -0.5 L 24 -0.5 z M 24 23.5 L 24 24.5 L 24 25.5 L 24 26.5 L 24 27.5 L 24 28.5 L 24 29.5 L 24 30.5 L 24 31.5 L 24 32.5 L 24 33.5 L 24 34.5 L 24 35.5 L 36 35.5 L 36 34.5 L 36 33.5 L 36 32.5 L 36 31.5 L 36 30.5 L 36 29.5 L 36 28.5 L 36 27.5 L 36 26.5 L 36 25.5 L 36 24.5 L 36 23.5 L 24 23.5 z M 24 47.5 L 24 48.5 L 24 49.5 L 24 50.5 L 24 51.5 L 24 52.5 L 24 53.5 L 24 54.5 L 24 55.5 L 24 56.5 L 24 57.5 L 24 58.5 L 24 59.5 L 36 59.5 L 36 58.5 L 36 57.5 L 36 56.5 L 36 55.5 L 36 54.5 L 36 53.5 L 36 52.5 L 36 51.5 L 36 50.5 L 36 49.5 L 36 48.5 L 36 47.5 L 24 47.5 z "
      />
  </g>
</svg>
