<svg
   xmlns="http://www.w3.org/2000/svg"
   shape-rendering="crispEdges"
   viewBox="0 -0.5 60 60">
  <g id="mic-off-base">
    <path
       d="M 24 -0.5 L 24 0.5 L 24 1.5 L 24 2.5 L 24 3.5 L 36 3.5 L 36 2.5 L 36 1.5 L 36 0.5 L 36 -0.5 L 24 -0.5 z M 36 3.5 L 36 4.5 L 36 5.5 L 36 6.5 L 36 7.5 L 40 7.5 L 40 6.5 L 40 5.5 L 40 4.5 L 40 3.5 L 36 3.5 z M 24 3.5 L 20 3.5 L 20 4.5 L 20 5.5 L 20 6.5 L 20 7.5 L 24 7.5 L 24 6.5 L 24 5.5 L 24 4.5 L 24 3.5 z M 20 7.5 L 16 7.5 L 16 8.5 L 16 9.5 L 16 10.5 L 16 11.5 L 16 12.5 L 16 13.5 L 16 14.5 L 16 15.5 L 16 16.5 L 16 17.5 L 16 18.5 L 16 19.5 L 16 20.5 L 16 21.5 L 16 22.5 L 16 23.5 L 16 24.5 L 16 25.5 L 16 26.5 L 16 27.5 L 16 28.5 L 16 29.5 L 16 30.5 L 16 31.5 L 20 31.5 L 20 30.5 L 20 29.5 L 20 28.5 L 20 27.5 L 20 26.5 L 20 25.5 L 20 24.5 L 20 23.5 L 20 22.5 L 20 21.5 L 20 20.5 L 20 19.5 L 20 18.5 L 20 17.5 L 20 16.5 L 20 15.5 L 20 14.5 L 20 13.5 L 20 12.5 L 20 11.5 L 20 10.5 L 20 9.5 L 20 8.5 L 20 7.5 z M 40 27.5 L 40 28.5 L 40 29.5 L 40 30.5 L 40 31.5 L 40 32.5 L 40 33.5 L 40 34.5 L 40 35.5 L 44 35.5 L 44 34.5 L 44 33.5 L 44 32.5 L 44 31.5 L 44 30.5 L 44 29.5 L 44 28.5 L 44 27.5 L 40 27.5 z M 40 35.5 L 36 35.5 L 36 36.5 L 36 37.5 L 36 38.5 L 36 39.5 L 40 39.5 L 40 38.5 L 40 37.5 L 40 36.5 L 40 35.5 z M 36 39.5 L 28 39.5 L 28 40.5 L 28 41.5 L 28 42.5 L 28 43.5 L 36 43.5 L 36 42.5 L 36 41.5 L 36 40.5 L 36 39.5 z M 44 39.5 L 44 40.5 L 44 41.5 L 44 42.5 L 44 43.5 L 48 43.5 L 48 42.5 L 48 41.5 L 48 40.5 L 48 39.5 L 44 39.5 z M 44 43.5 L 40 43.5 L 40 44.5 L 40 45.5 L 40 46.5 L 40 47.5 L 44 47.5 L 44 46.5 L 44 45.5 L 44 44.5 L 44 43.5 z M 40 47.5 L 20 47.5 L 20 48.5 L 20 49.5 L 20 50.5 L 20 51.5 L 28 51.5 L 28 52.5 L 28 53.5 L 28 54.5 L 28 55.5 L 28 56.5 L 28 57.5 L 28 58.5 L 28 59.5 L 32 59.5 L 32 58.5 L 32 57.5 L 32 56.5 L 32 55.5 L 32 54.5 L 32 53.5 L 32 52.5 L 32 51.5 L 40 51.5 L 40 50.5 L 40 49.5 L 40 48.5 L 40 47.5 z "
      />
  </g>
  <g id="mic-off-line">
    <path
       d="M 56 -0.5 L 56 0.5 L 56 1.5 L 56 2.5 L 56 3.5 L 60 3.5 L 60 2.5 L 60 1.5 L 60 0.5 L 60 -0.5 L 56 -0.5 z M 56 3.5 L 52 3.5 L 52 4.5 L 52 5.5 L 52 6.5 L 52 7.5 L 56 7.5 L 56 6.5 L 56 5.5 L 56 4.5 L 56 3.5 z M 52 7.5 L 48 7.5 L 48 8.5 L 48 9.5 L 48 10.5 L 48 11.5 L 52 11.5 L 52 10.5 L 52 9.5 L 52 8.5 L 52 7.5 z M 48 11.5 L 44 11.5 L 44 12.5 L 44 13.5 L 44 14.5 L 44 15.5 L 48 15.5 L 48 14.5 L 48 13.5 L 48 12.5 L 48 11.5 z M 44 15.5 L 40 15.5 L 40 16.5 L 40 17.5 L 40 18.5 L 40 19.5 L 44 19.5 L 44 18.5 L 44 17.5 L 44 16.5 L 44 15.5 z M 40 19.5 L 36 19.5 L 36 20.5 L 36 21.5 L 36 22.5 L 36 23.5 L 40 23.5 L 40 22.5 L 40 21.5 L 40 20.5 L 40 19.5 z M 36 23.5 L 32 23.5 L 32 24.5 L 32 25.5 L 32 26.5 L 32 27.5 L 36 27.5 L 36 26.5 L 36 25.5 L 36 24.5 L 36 23.5 z M 32 27.5 L 28 27.5 L 28 28.5 L 28 29.5 L 28 30.5 L 28 31.5 L 32 31.5 L 32 30.5 L 32 29.5 L 32 28.5 L 32 27.5 z M 28 31.5 L 24 31.5 L 24 32.5 L 24 33.5 L 24 34.5 L 24 35.5 L 28 35.5 L 28 34.5 L 28 33.5 L 28 32.5 L 28 31.5 z M 24 35.5 L 20 35.5 L 20 36.5 L 20 37.5 L 20 38.5 L 20 39.5 L 24 39.5 L 24 38.5 L 24 37.5 L 24 36.5 L 24 35.5 z M 20 39.5 L 16 39.5 L 16 40.5 L 16 41.5 L 16 42.5 L 16 43.5 L 20 43.5 L 20 42.5 L 20 41.5 L 20 40.5 L 20 39.5 z M 16 43.5 L 12 43.5 L 12 44.5 L 12 45.5 L 12 46.5 L 12 47.5 L 16 47.5 L 16 46.5 L 16 45.5 L 16 44.5 L 16 43.5 z M 12 47.5 L 8 47.5 L 8 48.5 L 8 49.5 L 8 50.5 L 8 51.5 L 12 51.5 L 12 50.5 L 12 49.5 L 12 48.5 L 12 47.5 z M 8 51.5 L 4 51.5 L 4 52.5 L 4 53.5 L 4 54.5 L 4 55.5 L 8 55.5 L 8 54.5 L 8 53.5 L 8 52.5 L 8 51.5 z M 4 55.5 L 0 55.5 L 0 56.5 L 0 57.5 L 0 58.5 L 0 59.5 L 4 59.5 L 4 58.5 L 4 57.5 L 4 56.5 L 4 55.5 z "
      />
  </g>
</svg>
