<svg
   xmlns="http://www.w3.org/2000/svg"
   shape-rendering="crispEdges"
   viewBox="0 -0.5 60 60">
  <g id="mic">
    <path
       id="main"
       d="M 24 -0.5 L 24 0.5 L 24 1.5 L 24 2.5 L 24 3.5 L 36 3.5 L 36 2.5 L 36 1.5 L 36 0.5 L 36 -0.5 L 24 -0.5 z M 36 3.5 L 36 4.5 L 36 5.5 L 36 6.5 L 36 7.5 L 40 7.5 L 40 6.5 L 40 5.5 L 40 4.5 L 40 3.5 L 36 3.5 z M 40 7.5 L 40 8.5 L 40 9.5 L 40 10.5 L 40 11.5 L 40 12.5 L 40 13.5 L 40 14.5 L 40 15.5 L 40 16.5 L 40 17.5 L 40 18.5 L 40 19.5 L 40 20.5 L 40 21.5 L 40 22.5 L 40 23.5 L 40 24.5 L 40 25.5 L 40 26.5 L 40 27.5 L 40 28.5 L 40 29.5 L 40 30.5 L 40 31.5 L 40 32.5 L 40 33.5 L 40 34.5 L 40 35.5 L 44 35.5 L 44 34.5 L 44 33.5 L 44 32.5 L 44 31.5 L 44 30.5 L 44 29.5 L 44 28.5 L 44 27.5 L 44 26.5 L 44 25.5 L 44 24.5 L 44 23.5 L 44 22.5 L 44 21.5 L 44 20.5 L 44 19.5 L 44 18.5 L 44 17.5 L 44 16.5 L 44 15.5 L 44 14.5 L 44 13.5 L 44 12.5 L 44 11.5 L 44 10.5 L 44 9.5 L 44 8.5 L 44 7.5 L 40 7.5 z M 40 35.5 L 36 35.5 L 36 36.5 L 36 37.5 L 36 38.5 L 36 39.5 L 40 39.5 L 40 38.5 L 40 37.5 L 40 36.5 L 40 35.5 z M 36 39.5 L 24 39.5 L 24 40.5 L 24 41.5 L 24 42.5 L 24 43.5 L 36 43.5 L 36 42.5 L 36 41.5 L 36 40.5 L 36 39.5 z M 24 39.5 L 24 38.5 L 24 37.5 L 24 36.5 L 24 35.5 L 20 35.5 L 20 36.5 L 20 37.5 L 20 38.5 L 20 39.5 L 24 39.5 z M 20 35.5 L 20 34.5 L 20 33.5 L 20 32.5 L 20 31.5 L 20 30.5 L 20 29.5 L 20 28.5 L 20 27.5 L 20 26.5 L 20 25.5 L 20 24.5 L 20 23.5 L 20 22.5 L 20 21.5 L 20 20.5 L 20 19.5 L 20 18.5 L 20 17.5 L 20 16.5 L 20 15.5 L 20 14.5 L 20 13.5 L 20 12.5 L 20 11.5 L 20 10.5 L 20 9.5 L 20 8.5 L 20 7.5 L 16 7.5 L 16 8.5 L 16 9.5 L 16 10.5 L 16 11.5 L 16 12.5 L 16 13.5 L 16 14.5 L 16 15.5 L 16 16.5 L 16 17.5 L 16 18.5 L 16 19.5 L 16 20.5 L 16 21.5 L 16 22.5 L 16 23.5 L 16 24.5 L 16 25.5 L 16 26.5 L 16 27.5 L 16 28.5 L 16 29.5 L 16 30.5 L 16 31.5 L 16 32.5 L 16 33.5 L 16 34.5 L 16 35.5 L 20 35.5 z M 20 7.5 L 24 7.5 L 24 6.5 L 24 5.5 L 24 4.5 L 24 3.5 L 20 3.5 L 20 4.5 L 20 5.5 L 20 6.5 L 20 7.5 z M 12 39.5 L 12 40.5 L 12 41.5 L 12 42.5 L 12 43.5 L 16 43.5 L 16 42.5 L 16 41.5 L 16 40.5 L 16 39.5 L 12 39.5 z M 16 43.5 L 16 44.5 L 16 45.5 L 16 46.5 L 16 47.5 L 20 47.5 L 20 46.5 L 20 45.5 L 20 44.5 L 20 43.5 L 16 43.5 z M 20 47.5 L 20 48.5 L 20 49.5 L 20 50.5 L 20 51.5 L 28 51.5 L 28 52.5 L 28 53.5 L 28 54.5 L 28 55.5 L 28 56.5 L 28 57.5 L 28 58.5 L 28 59.5 L 32 59.5 L 32 58.5 L 32 57.5 L 32 56.5 L 32 55.5 L 32 54.5 L 32 53.5 L 32 52.5 L 32 51.5 L 40 51.5 L 40 50.5 L 40 49.5 L 40 48.5 L 40 47.5 L 20 47.5 z M 40 47.5 L 44 47.5 L 44 46.5 L 44 45.5 L 44 44.5 L 44 43.5 L 40 43.5 L 40 44.5 L 40 45.5 L 40 46.5 L 40 47.5 z M 44 43.5 L 48 43.5 L 48 42.5 L 48 41.5 L 48 40.5 L 48 39.5 L 44 39.5 L 44 40.5 L 44 41.5 L 44 42.5 L 44 43.5 z "
       />
  </g>
</svg>
