<svg
   xmlns="http://www.w3.org/2000/svg"
   shape-rendering="crispEdges"
   viewBox="0 -0.5 60 60">
  <g id="notification">
    <path
       id="main"
       d="M 28 -0.5 L 28 0.5 L 28 1.5 L 28 2.5 L 28 3.5 L 32 3.5 L 32 2.5 L 32 1.5 L 32 0.5 L 32 -0.5 L 28 -0.5 z M 32 3.5 L 32 4.5 L 32 5.5 L 32 6.5 L 32 7.5 L 36 7.5 L 36 6.5 L 36 5.5 L 36 4.5 L 36 3.5 L 32 3.5 z M 36 7.5 L 36 8.5 L 36 9.5 L 36 10.5 L 36 11.5 L 36 12.5 L 36 13.5 L 36 14.5 L 36 15.5 L 40 15.5 L 40 14.5 L 40 13.5 L 40 12.5 L 40 11.5 L 40 10.5 L 40 9.5 L 40 8.5 L 40 7.5 L 36 7.5 z M 40 15.5 L 40 16.5 L 40 17.5 L 40 18.5 L 40 19.5 L 40 20.5 L 40 21.5 L 40 22.5 L 40 23.5 L 44 23.5 L 44 22.5 L 44 21.5 L 44 20.5 L 44 19.5 L 44 18.5 L 44 17.5 L 44 16.5 L 44 15.5 L 40 15.5 z M 44 23.5 L 44 24.5 L 44 25.5 L 44 26.5 L 44 27.5 L 44 28.5 L 44 29.5 L 44 30.5 L 44 31.5 L 48 31.5 L 48 30.5 L 48 29.5 L 48 28.5 L 48 27.5 L 48 26.5 L 48 25.5 L 48 24.5 L 48 23.5 L 44 23.5 z M 48 31.5 L 48 32.5 L 48 33.5 L 48 34.5 L 48 35.5 L 52 35.5 L 52 34.5 L 52 33.5 L 52 32.5 L 52 31.5 L 48 31.5 z M 52 35.5 L 52 36.5 L 52 37.5 L 52 38.5 L 52 39.5 L 56 39.5 L 56 38.5 L 56 37.5 L 56 36.5 L 56 35.5 L 52 35.5 z M 56 39.5 L 56 40.5 L 56 41.5 L 56 42.5 L 56 43.5 L 60 43.5 L 60 42.5 L 60 41.5 L 60 40.5 L 60 39.5 L 56 39.5 z M 56 43.5 L 4 43.5 L 4 44.5 L 4 45.5 L 4 46.5 L 4 47.5 L 56 47.5 L 56 46.5 L 56 45.5 L 56 44.5 L 56 43.5 z M 4 43.5 L 4 42.5 L 4 41.5 L 4 40.5 L 4 39.5 L 0 39.5 L 0 40.5 L 0 41.5 L 0 42.5 L 0 43.5 L 4 43.5 z M 4 39.5 L 8 39.5 L 8 38.5 L 8 37.5 L 8 36.5 L 8 35.5 L 4 35.5 L 4 36.5 L 4 37.5 L 4 38.5 L 4 39.5 z M 8 35.5 L 12 35.5 L 12 34.5 L 12 33.5 L 12 32.5 L 12 31.5 L 8 31.5 L 8 32.5 L 8 33.5 L 8 34.5 L 8 35.5 z M 12 31.5 L 16 31.5 L 16 30.5 L 16 29.5 L 16 28.5 L 16 27.5 L 16 26.5 L 16 25.5 L 16 24.5 L 16 23.5 L 12 23.5 L 12 24.5 L 12 25.5 L 12 26.5 L 12 27.5 L 12 28.5 L 12 29.5 L 12 30.5 L 12 31.5 z M 16 23.5 L 20 23.5 L 20 22.5 L 20 21.5 L 20 20.5 L 20 19.5 L 20 18.5 L 20 17.5 L 20 16.5 L 20 15.5 L 16 15.5 L 16 16.5 L 16 17.5 L 16 18.5 L 16 19.5 L 16 20.5 L 16 21.5 L 16 22.5 L 16 23.5 z M 20 15.5 L 24 15.5 L 24 14.5 L 24 13.5 L 24 12.5 L 24 11.5 L 24 10.5 L 24 9.5 L 24 8.5 L 24 7.5 L 20 7.5 L 20 8.5 L 20 9.5 L 20 10.5 L 20 11.5 L 20 12.5 L 20 13.5 L 20 14.5 L 20 15.5 z M 24 7.5 L 28 7.5 L 28 6.5 L 28 5.5 L 28 4.5 L 28 3.5 L 24 3.5 L 24 4.5 L 24 5.5 L 24 6.5 L 24 7.5 z M 24 51.5 L 24 52.5 L 24 53.5 L 24 54.5 L 24 55.5 L 24 56.5 L 24 57.5 L 24 58.5 L 24 59.5 L 36 59.5 L 36 58.5 L 36 57.5 L 36 56.5 L 36 55.5 L 36 54.5 L 36 53.5 L 36 52.5 L 36 51.5 L 24 51.5 z "
      />
  </g>
</svg>
