<svg
   xmlns="http://www.w3.org/2000/svg"
   shape-rendering="crispEdges"
   viewBox="0 -0.5 60 60">
  <g id="search">
    <path
       d="M 28 -0.5 L 28 0.5 L 28 1.5 L 28 2.5 L 28 3.5 L 48 3.5 L 48 2.5 L 48 1.5 L 48 0.5 L 48 -0.5 L 28 -0.5 z M 48 3.5 L 48 4.5 L 48 5.5 L 48 6.5 L 48 7.5 L 52 7.5 L 52 6.5 L 52 5.5 L 52 4.5 L 52 3.5 L 48 3.5 z M 52 7.5 L 52 8.5 L 52 9.5 L 52 10.5 L 52 11.5 L 56 11.5 L 56 10.5 L 56 9.5 L 56 8.5 L 56 7.5 L 52 7.5 z M 56 11.5 L 56 12.5 L 56 13.5 L 56 14.5 L 56 15.5 L 56 16.5 L 56 17.5 L 56 18.5 L 56 19.5 L 56 20.5 L 56 21.5 L 56 22.5 L 56 23.5 L 56 24.5 L 56 25.5 L 56 26.5 L 56 27.5 L 56 28.5 L 56 29.5 L 56 30.5 L 56 31.5 L 60 31.5 L 60 30.5 L 60 29.5 L 60 28.5 L 60 27.5 L 60 26.5 L 60 25.5 L 60 24.5 L 60 23.5 L 60 22.5 L 60 21.5 L 60 20.5 L 60 19.5 L 60 18.5 L 60 17.5 L 60 16.5 L 60 15.5 L 60 14.5 L 60 13.5 L 60 12.5 L 60 11.5 L 56 11.5 z M 56 31.5 L 52 31.5 L 52 32.5 L 52 33.5 L 52 34.5 L 52 35.5 L 56 35.5 L 56 34.5 L 56 33.5 L 56 32.5 L 56 31.5 z M 52 35.5 L 48 35.5 L 48 36.5 L 48 37.5 L 48 38.5 L 48 39.5 L 52 39.5 L 52 38.5 L 52 37.5 L 52 36.5 L 52 35.5 z M 48 39.5 L 28 39.5 L 28 40.5 L 28 41.5 L 28 42.5 L 28 43.5 L 48 43.5 L 48 42.5 L 48 41.5 L 48 40.5 L 48 39.5 z M 28 39.5 L 28 38.5 L 28 37.5 L 28 36.5 L 28 35.5 L 24 35.5 L 24 36.5 L 24 37.5 L 24 38.5 L 24 39.5 L 28 39.5 z M 24 35.5 L 24 34.5 L 24 33.5 L 24 32.5 L 24 31.5 L 20 31.5 L 20 32.5 L 20 33.5 L 20 34.5 L 20 35.5 L 24 35.5 z M 20 31.5 L 20 30.5 L 20 29.5 L 20 28.5 L 20 27.5 L 20 26.5 L 20 25.5 L 20 24.5 L 20 23.5 L 20 22.5 L 20 21.5 L 20 20.5 L 20 19.5 L 20 18.5 L 20 17.5 L 20 16.5 L 20 15.5 L 20 14.5 L 20 13.5 L 20 12.5 L 20 11.5 L 16 11.5 L 16 12.5 L 16 13.5 L 16 14.5 L 16 15.5 L 16 16.5 L 16 17.5 L 16 18.5 L 16 19.5 L 16 20.5 L 16 21.5 L 16 22.5 L 16 23.5 L 16 24.5 L 16 25.5 L 16 26.5 L 16 27.5 L 16 28.5 L 16 29.5 L 16 30.5 L 16 31.5 L 20 31.5 z M 20 11.5 L 24 11.5 L 24 10.5 L 24 9.5 L 24 8.5 L 24 7.5 L 20 7.5 L 20 8.5 L 20 9.5 L 20 10.5 L 20 11.5 z M 24 7.5 L 28 7.5 L 28 6.5 L 28 5.5 L 28 4.5 L 28 3.5 L 24 3.5 L 24 4.5 L 24 5.5 L 24 6.5 L 24 7.5 z M 32 7.5 L 32 8.5 L 32 9.5 L 32 10.5 L 32 11.5 L 36 11.5 L 36 10.5 L 36 9.5 L 36 8.5 L 36 7.5 L 32 7.5 z M 32 11.5 L 28 11.5 L 28 12.5 L 28 13.5 L 28 14.5 L 28 15.5 L 32 15.5 L 32 14.5 L 32 13.5 L 32 12.5 L 32 11.5 z M 28 15.5 L 24 15.5 L 24 16.5 L 24 17.5 L 24 18.5 L 24 19.5 L 28 19.5 L 28 18.5 L 28 17.5 L 28 16.5 L 28 15.5 z M 16 39.5 L 16 40.5 L 16 41.5 L 16 42.5 L 16 43.5 L 20 43.5 L 20 42.5 L 20 41.5 L 20 40.5 L 20 39.5 L 16 39.5 z M 16 43.5 L 12 43.5 L 12 44.5 L 12 45.5 L 12 46.5 L 12 47.5 L 16 47.5 L 16 46.5 L 16 45.5 L 16 44.5 L 16 43.5 z M 12 47.5 L 8 47.5 L 8 48.5 L 8 49.5 L 8 50.5 L 8 51.5 L 12 51.5 L 12 50.5 L 12 49.5 L 12 48.5 L 12 47.5 z M 8 51.5 L 4 51.5 L 4 52.5 L 4 53.5 L 4 54.5 L 4 55.5 L 8 55.5 L 8 54.5 L 8 53.5 L 8 52.5 L 8 51.5 z M 4 55.5 L 0 55.5 L 0 56.5 L 0 57.5 L 0 58.5 L 0 59.5 L 4 59.5 L 4 58.5 L 4 57.5 L 4 56.5 L 4 55.5 z "
      />
  </g>
</svg>
