<svg
   xmlns="http://www.w3.org/2000/svg"
   shape-rendering="crispEdges"
   viewBox="0 -0.5 60 60">
  <g id="g19">
    <path
      fill="#000000"
      d="M 0 -0.5 L 0 0.5 L 0 1.5 L 0 2.5 L 0 3.5 L 0 4.5 L 0 5.5 L 0 6.5 L 0 7.5 L 0 8.5 L 0 9.5 L 0 10.5 L 0 11.5 L 0 12.5 L 0 13.5 L 0 14.5 L 0 15.5 L 0 16.5 L 0 17.5 L 0 18.5 L 0 19.5 L 8 19.5 L 8 18.5 L 8 17.5 L 8 16.5 L 8 15.5 L 4 15.5 L 4 14.5 L 4 13.5 L 4 12.5 L 4 11.5 L 4 10.5 L 4 9.5 L 4 8.5 L 4 7.5 L 4 6.5 L 4 5.5 L 4 4.5 L 4 3.5 L 8 3.5 L 8 2.5 L 8 1.5 L 8 0.5 L 8 -0.5 L 0 -0.5 z M 8 3.5 L 8 4.5 L 8 5.5 L 8 6.5 L 8 7.5 L 16 7.5 L 16 6.5 L 16 5.5 L 16 4.5 L 16 3.5 L 8 3.5 z M 16 7.5 L 16 8.5 L 16 9.5 L 16 10.5 L 16 11.5 L 24 11.5 L 24 10.5 L 24 9.5 L 24 8.5 L 24 7.5 L 16 7.5 z M 24 11.5 L 24 12.5 L 24 13.5 L 24 14.5 L 24 15.5 L 32 15.5 L 32 14.5 L 32 13.5 L 32 12.5 L 32 11.5 L 24 11.5 z M 32 15.5 L 32 16.5 L 32 17.5 L 32 18.5 L 32 19.5 L 40 19.5 L 40 18.5 L 40 17.5 L 40 16.5 L 40 15.5 L 32 15.5 z M 40 19.5 L 40 20.5 L 40 21.5 L 40 22.5 L 40 23.5 L 48 23.5 L 48 22.5 L 48 21.5 L 48 20.5 L 48 19.5 L 40 19.5 z M 48 23.5 L 48 24.5 L 48 25.5 L 48 26.5 L 48 27.5 L 56 27.5 L 56 26.5 L 56 25.5 L 56 24.5 L 56 23.5 L 48 23.5 z M 56 27.5 L 56 28.5 L 56 29.5 L 56 30.5 L 56 31.5 L 60 31.5 L 60 30.5 L 60 29.5 L 60 28.5 L 60 27.5 L 56 27.5 z M 56 31.5 L 48 31.5 L 48 32.5 L 48 33.5 L 48 34.5 L 48 35.5 L 56 35.5 L 56 34.5 L 56 33.5 L 56 32.5 L 56 31.5 z M 48 35.5 L 40 35.5 L 40 36.5 L 40 37.5 L 40 38.5 L 40 39.5 L 48 39.5 L 48 38.5 L 48 37.5 L 48 36.5 L 48 35.5 z M 40 39.5 L 32 39.5 L 32 40.5 L 32 41.5 L 32 42.5 L 32 43.5 L 40 43.5 L 40 42.5 L 40 41.5 L 40 40.5 L 40 39.5 z M 32 43.5 L 24 43.5 L 24 44.5 L 24 45.5 L 24 46.5 L 24 47.5 L 32 47.5 L 32 46.5 L 32 45.5 L 32 44.5 L 32 43.5 z M 24 47.5 L 16 47.5 L 16 48.5 L 16 49.5 L 16 50.5 L 16 51.5 L 24 51.5 L 24 50.5 L 24 49.5 L 24 48.5 L 24 47.5 z M 16 51.5 L 8 51.5 L 8 52.5 L 8 53.5 L 8 54.5 L 8 55.5 L 16 55.5 L 16 54.5 L 16 53.5 L 16 52.5 L 16 51.5 z M 8 55.5 L 4 55.5 L 4 54.5 L 4 53.5 L 4 52.5 L 4 51.5 L 4 50.5 L 4 49.5 L 4 48.5 L 4 47.5 L 4 46.5 L 4 45.5 L 4 44.5 L 4 43.5 L 8 43.5 L 8 42.5 L 8 41.5 L 8 40.5 L 8 39.5 L 0 39.5 L 0 40.5 L 0 41.5 L 0 42.5 L 0 43.5 L 0 44.5 L 0 45.5 L 0 46.5 L 0 47.5 L 0 48.5 L 0 49.5 L 0 50.5 L 0 51.5 L 0 52.5 L 0 53.5 L 0 54.5 L 0 55.5 L 0 56.5 L 0 57.5 L 0 58.5 L 0 59.5 L 8 59.5 L 8 58.5 L 8 57.5 L 8 56.5 L 8 55.5 z M 8 39.5 L 16 39.5 L 16 38.5 L 16 37.5 L 16 36.5 L 16 35.5 L 8 35.5 L 8 36.5 L 8 37.5 L 8 38.5 L 8 39.5 z M 16 35.5 L 24 35.5 L 24 34.5 L 24 33.5 L 24 32.5 L 24 31.5 L 16 31.5 L 16 32.5 L 16 33.5 L 16 34.5 L 16 35.5 z M 24 31.5 L 28 31.5 L 28 30.5 L 28 29.5 L 28 28.5 L 28 27.5 L 24 27.5 L 24 28.5 L 24 29.5 L 24 30.5 L 24 31.5 z M 24 27.5 L 24 26.5 L 24 25.5 L 24 24.5 L 24 23.5 L 16 23.5 L 16 24.5 L 16 25.5 L 16 26.5 L 16 27.5 L 24 27.5 z M 16 23.5 L 16 22.5 L 16 21.5 L 16 20.5 L 16 19.5 L 8 19.5 L 8 20.5 L 8 21.5 L 8 22.5 L 8 23.5 L 16 23.5 z "
    />
  </g>
</svg>
