<svg
   xmlns="http://www.w3.org/2000/svg"
   shape-rendering="crispEdges"
   viewBox="0 -0.5 60 60">
  <g id="settings">
    <path
      id="main"
      d="M 24 -0.5 L 24 0.5 L 24 1.5 L 24 2.5 L 24 3.5 L 24 4.5 L 24 5.5 L 24 6.5 L 24 7.5 L 36 7.5 L 36 6.5 L 36 5.5 L 36 4.5 L 36 3.5 L 36 2.5 L 36 1.5 L 36 0.5 L 36 -0.5 L 24 -0.5 z M 36 7.5 L 36 8.5 L 36 9.5 L 36 10.5 L 36 11.5 L 44 11.5 L 44 12.5 L 44 13.5 L 44 14.5 L 44 15.5 L 48 15.5 L 48 16.5 L 48 17.5 L 48 18.5 L 48 19.5 L 48 20.5 L 48 21.5 L 48 22.5 L 48 23.5 L 52 23.5 L 52 22.5 L 52 21.5 L 52 20.5 L 52 19.5 L 52 18.5 L 52 17.5 L 52 16.5 L 52 15.5 L 56 15.5 L 56 14.5 L 56 13.5 L 56 12.5 L 56 11.5 L 52 11.5 L 52 10.5 L 52 9.5 L 52 8.5 L 52 7.5 L 48 7.5 L 48 6.5 L 48 5.5 L 48 4.5 L 48 3.5 L 44 3.5 L 44 4.5 L 44 5.5 L 44 6.5 L 44 7.5 L 36 7.5 z M 52 23.5 L 52 24.5 L 52 25.5 L 52 26.5 L 52 27.5 L 52 28.5 L 52 29.5 L 52 30.5 L 52 31.5 L 52 32.5 L 52 33.5 L 52 34.5 L 52 35.5 L 60 35.5 L 60 34.5 L 60 33.5 L 60 32.5 L 60 31.5 L 60 30.5 L 60 29.5 L 60 28.5 L 60 27.5 L 60 26.5 L 60 25.5 L 60 24.5 L 60 23.5 L 52 23.5 z M 52 35.5 L 48 35.5 L 48 36.5 L 48 37.5 L 48 38.5 L 48 39.5 L 48 40.5 L 48 41.5 L 48 42.5 L 48 43.5 L 44 43.5 L 44 44.5 L 44 45.5 L 44 46.5 L 44 47.5 L 36 47.5 L 36 48.5 L 36 49.5 L 36 50.5 L 36 51.5 L 44 51.5 L 44 52.5 L 44 53.5 L 44 54.5 L 44 55.5 L 48 55.5 L 48 54.5 L 48 53.5 L 48 52.5 L 48 51.5 L 52 51.5 L 52 50.5 L 52 49.5 L 52 48.5 L 52 47.5 L 56 47.5 L 56 46.5 L 56 45.5 L 56 44.5 L 56 43.5 L 52 43.5 L 52 42.5 L 52 41.5 L 52 40.5 L 52 39.5 L 52 38.5 L 52 37.5 L 52 36.5 L 52 35.5 z M 36 51.5 L 24 51.5 L 24 52.5 L 24 53.5 L 24 54.5 L 24 55.5 L 24 56.5 L 24 57.5 L 24 58.5 L 24 59.5 L 36 59.5 L 36 58.5 L 36 57.5 L 36 56.5 L 36 55.5 L 36 54.5 L 36 53.5 L 36 52.5 L 36 51.5 z M 24 51.5 L 24 50.5 L 24 49.5 L 24 48.5 L 24 47.5 L 16 47.5 L 16 46.5 L 16 45.5 L 16 44.5 L 16 43.5 L 12 43.5 L 12 42.5 L 12 41.5 L 12 40.5 L 12 39.5 L 12 38.5 L 12 37.5 L 12 36.5 L 12 35.5 L 8 35.5 L 8 36.5 L 8 37.5 L 8 38.5 L 8 39.5 L 8 40.5 L 8 41.5 L 8 42.5 L 8 43.5 L 4 43.5 L 4 44.5 L 4 45.5 L 4 46.5 L 4 47.5 L 8 47.5 L 8 48.5 L 8 49.5 L 8 50.5 L 8 51.5 L 12 51.5 L 12 52.5 L 12 53.5 L 12 54.5 L 12 55.5 L 16 55.5 L 16 54.5 L 16 53.5 L 16 52.5 L 16 51.5 L 24 51.5 z M 8 35.5 L 8 34.5 L 8 33.5 L 8 32.5 L 8 31.5 L 8 30.5 L 8 29.5 L 8 28.5 L 8 27.5 L 8 26.5 L 8 25.5 L 8 24.5 L 8 23.5 L 0 23.5 L 0 24.5 L 0 25.5 L 0 26.5 L 0 27.5 L 0 28.5 L 0 29.5 L 0 30.5 L 0 31.5 L 0 32.5 L 0 33.5 L 0 34.5 L 0 35.5 L 8 35.5 z M 8 23.5 L 12 23.5 L 12 22.5 L 12 21.5 L 12 20.5 L 12 19.5 L 12 18.5 L 12 17.5 L 12 16.5 L 12 15.5 L 16 15.5 L 16 14.5 L 16 13.5 L 16 12.5 L 16 11.5 L 24 11.5 L 24 10.5 L 24 9.5 L 24 8.5 L 24 7.5 L 16 7.5 L 16 6.5 L 16 5.5 L 16 4.5 L 16 3.5 L 12 3.5 L 12 4.5 L 12 5.5 L 12 6.5 L 12 7.5 L 8 7.5 L 8 8.5 L 8 9.5 L 8 10.5 L 8 11.5 L 4 11.5 L 4 12.5 L 4 13.5 L 4 14.5 L 4 15.5 L 8 15.5 L 8 16.5 L 8 17.5 L 8 18.5 L 8 19.5 L 8 20.5 L 8 21.5 L 8 22.5 L 8 23.5 z M 24 19.5 L 24 20.5 L 24 21.5 L 24 22.5 L 24 23.5 L 36 23.5 L 36 22.5 L 36 21.5 L 36 20.5 L 36 19.5 L 24 19.5 z M 36 23.5 L 36 24.5 L 36 25.5 L 36 26.5 L 36 27.5 L 36 28.5 L 36 29.5 L 36 30.5 L 36 31.5 L 36 32.5 L 36 33.5 L 36 34.5 L 36 35.5 L 40 35.5 L 40 34.5 L 40 33.5 L 40 32.5 L 40 31.5 L 40 30.5 L 40 29.5 L 40 28.5 L 40 27.5 L 40 26.5 L 40 25.5 L 40 24.5 L 40 23.5 L 36 23.5 z M 36 35.5 L 24 35.5 L 24 36.5 L 24 37.5 L 24 38.5 L 24 39.5 L 36 39.5 L 36 38.5 L 36 37.5 L 36 36.5 L 36 35.5 z M 24 35.5 L 24 34.5 L 24 33.5 L 24 32.5 L 24 31.5 L 24 30.5 L 24 29.5 L 24 28.5 L 24 27.5 L 24 26.5 L 24 25.5 L 24 24.5 L 24 23.5 L 20 23.5 L 20 24.5 L 20 25.5 L 20 26.5 L 20 27.5 L 20 28.5 L 20 29.5 L 20 30.5 L 20 31.5 L 20 32.5 L 20 33.5 L 20 34.5 L 20 35.5 L 24 35.5 z "
    />
  </g>
</svg>
