<svg
   xmlns="http://www.w3.org/2000/svg"
   shape-rendering="crispEdges"
   viewBox="0 -0.5 60 60">
  <g id="g19">
    <path
       fill="#000000"
       d="M 29 3.5 L 29 4.5 L 29 5.5 L 29 6.5 L 29 7.5 L 29 8.5 L 29 9.5 L 29 10.5 L 29 11.5 L 29 12.5 L 29 13.5 L 29 14.5 L 29 15.5 L 13 15.5 L 13 16.5 L 13 17.5 L 13 18.5 L 13 19.5 L 13 20.5 L 13 21.5 L 13 22.5 L 13 23.5 L 13 24.5 L 13 25.5 L 13 26.5 L 13 27.5 L 13 28.5 L 13 29.5 L 13 30.5 L 13 31.5 L 13 32.5 L 13 33.5 L 13 34.5 L 13 35.5 L 13 36.5 L 13 37.5 L 13 38.5 L 13 39.5 L 13 40.5 L 13 41.5 L 13 42.5 L 13 43.5 L 29 43.5 L 29 44.5 L 29 45.5 L 29 46.5 L 29 47.5 L 29 48.5 L 29 49.5 L 29 50.5 L 29 51.5 L 29 52.5 L 29 53.5 L 29 54.5 L 29 55.5 L 33 55.5 L 33 54.5 L 33 53.5 L 33 52.5 L 33 51.5 L 37 51.5 L 37 50.5 L 37 49.5 L 37 48.5 L 37 47.5 L 41 47.5 L 41 46.5 L 41 45.5 L 41 44.5 L 41 43.5 L 45 43.5 L 45 42.5 L 45 41.5 L 45 40.5 L 45 39.5 L 49 39.5 L 49 38.5 L 49 37.5 L 49 36.5 L 49 35.5 L 53 35.5 L 53 34.5 L 53 33.5 L 53 32.5 L 53 31.5 L 57 31.5 L 57 30.5 L 57 29.5 L 57 28.5 L 57 27.5 L 53 27.5 L 53 26.5 L 53 25.5 L 53 24.5 L 53 23.5 L 49 23.5 L 49 22.5 L 49 21.5 L 49 20.5 L 49 19.5 L 45 19.5 L 45 18.5 L 45 17.5 L 45 16.5 L 45 15.5 L 41 15.5 L 41 14.5 L 41 13.5 L 41 12.5 L 41 11.5 L 37 11.5 L 37 10.5 L 37 9.5 L 37 8.5 L 37 7.5 L 33 7.5 L 33 6.5 L 33 5.5 L 33 4.5 L 33 3.5 L 29 3.5 z M 5 7.5 L 5 8.5 L 5 9.5 L 5 10.5 L 5 11.5 L 5 12.5 L 5 13.5 L 5 14.5 L 5 15.5 L 5 16.5 L 5 17.5 L 5 18.5 L 5 19.5 L 5 20.5 L 5 21.5 L 5 22.5 L 5 23.5 L 5 24.5 L 5 25.5 L 5 26.5 L 5 27.5 L 5 28.5 L 5 29.5 L 5 30.5 L 5 31.5 L 5 32.5 L 5 33.5 L 5 34.5 L 5 35.5 L 5 36.5 L 5 37.5 L 5 38.5 L 5 39.5 L 5 40.5 L 5 41.5 L 5 42.5 L 5 43.5 L 5 44.5 L 5 45.5 L 5 46.5 L 5 47.5 L 5 48.5 L 5 49.5 L 5 50.5 L 5 51.5 L 25 51.5 L 25 50.5 L 25 49.5 L 25 48.5 L 25 47.5 L 9 47.5 L 9 46.5 L 9 45.5 L 9 44.5 L 9 43.5 L 9 42.5 L 9 41.5 L 9 40.5 L 9 39.5 L 9 38.5 L 9 37.5 L 9 36.5 L 9 35.5 L 9 34.5 L 9 33.5 L 9 32.5 L 9 31.5 L 9 30.5 L 9 29.5 L 9 28.5 L 9 27.5 L 9 26.5 L 9 25.5 L 9 24.5 L 9 23.5 L 9 22.5 L 9 21.5 L 9 20.5 L 9 19.5 L 9 18.5 L 9 17.5 L 9 16.5 L 9 15.5 L 9 14.5 L 9 13.5 L 9 12.5 L 9 11.5 L 25 11.5 L 25 10.5 L 25 9.5 L 25 8.5 L 25 7.5 L 5 7.5 z "
      />
  </g>
</svg>
