<svg
   xmlns="http://www.w3.org/2000/svg"
   shape-rendering="crispEdges"
   viewBox="0 -0.5 60 60">
  <g id="g27">
    <path
      fill="#000000"
      d="M 0 7.5 L 0 8.5 L 0 9.5 L 0 10.5 L 0 11.5 L 4 11.5 L 4 10.5 L 4 9.5 L 4 8.5 L 4 7.5 L 0 7.5 z M 4 11.5 L 4 12.5 L 4 13.5 L 4 14.5 L 4 15.5 L 8 15.5 L 8 14.5 L 8 13.5 L 8 12.5 L 8 11.5 L 4 11.5 z M 8 15.5 L 8 16.5 L 8 17.5 L 8 18.5 L 8 19.5 L 12 19.5 L 12 18.5 L 12 17.5 L 12 16.5 L 12 15.5 L 8 15.5 z M 12 19.5 L 12 20.5 L 12 21.5 L 12 22.5 L 12 23.5 L 16 23.5 L 16 22.5 L 16 21.5 L 16 20.5 L 16 19.5 L 12 19.5 z M 16 23.5 L 16 24.5 L 16 25.5 L 16 26.5 L 16 27.5 L 20 27.5 L 20 26.5 L 20 25.5 L 20 24.5 L 20 23.5 L 16 23.5 z M 20 27.5 L 20 28.5 L 20 29.5 L 20 30.5 L 20 31.5 L 24 31.5 L 24 30.5 L 24 29.5 L 24 28.5 L 24 27.5 L 20 27.5 z M 24 31.5 L 24 32.5 L 24 33.5 L 24 34.5 L 24 35.5 L 28 35.5 L 28 34.5 L 28 33.5 L 28 32.5 L 28 31.5 L 24 31.5 z M 28 35.5 L 28 36.5 L 28 37.5 L 28 38.5 L 28 39.5 L 32 39.5 L 32 38.5 L 32 37.5 L 32 36.5 L 32 35.5 L 28 35.5 z M 32 35.5 L 36 35.5 L 36 34.5 L 36 33.5 L 36 32.5 L 36 31.5 L 32 31.5 L 32 32.5 L 32 33.5 L 32 34.5 L 32 35.5 z M 36 31.5 L 40 31.5 L 40 30.5 L 40 29.5 L 40 28.5 L 40 27.5 L 36 27.5 L 36 28.5 L 36 29.5 L 36 30.5 L 36 31.5 z M 40 27.5 L 44 27.5 L 44 26.5 L 44 25.5 L 44 24.5 L 44 23.5 L 40 23.5 L 40 24.5 L 40 25.5 L 40 26.5 L 40 27.5 z M 44 23.5 L 48 23.5 L 48 22.5 L 48 21.5 L 48 20.5 L 48 19.5 L 44 19.5 L 44 20.5 L 44 21.5 L 44 22.5 L 44 23.5 z M 48 19.5 L 52 19.5 L 52 18.5 L 52 17.5 L 52 16.5 L 52 15.5 L 48 15.5 L 48 16.5 L 48 17.5 L 48 18.5 L 48 19.5 z M 52 15.5 L 56 15.5 L 56 14.5 L 56 13.5 L 56 12.5 L 56 11.5 L 52 11.5 L 52 12.5 L 52 13.5 L 52 14.5 L 52 15.5 z M 56 11.5 L 60 11.5 L 60 10.5 L 60 9.5 L 60 8.5 L 60 7.5 L 56 7.5 L 56 8.5 L 56 9.5 L 56 10.5 L 56 11.5 z "
    />
  </g>
  <g id="g21">
    <path
      fill="#dc136c"
      d="M 0 19.5 L 0 20.5 L 0 21.5 L 0 22.5 L 0 23.5 L 4 23.5 L 4 22.5 L 4 21.5 L 4 20.5 L 4 19.5 L 0 19.5 z M 4 23.5 L 4 24.5 L 4 25.5 L 4 26.5 L 4 27.5 L 8 27.5 L 8 26.5 L 8 25.5 L 8 24.5 L 8 23.5 L 4 23.5 z M 8 27.5 L 8 28.5 L 8 29.5 L 8 30.5 L 8 31.5 L 12 31.5 L 12 30.5 L 12 29.5 L 12 28.5 L 12 27.5 L 8 27.5 z M 12 31.5 L 12 32.5 L 12 33.5 L 12 34.5 L 12 35.5 L 16 35.5 L 16 34.5 L 16 33.5 L 16 32.5 L 16 31.5 L 12 31.5 z M 16 35.5 L 16 36.5 L 16 37.5 L 16 38.5 L 16 39.5 L 20 39.5 L 20 38.5 L 20 37.5 L 20 36.5 L 20 35.5 L 16 35.5 z M 20 39.5 L 20 40.5 L 20 41.5 L 20 42.5 L 20 43.5 L 24 43.5 L 24 42.5 L 24 41.5 L 24 40.5 L 24 39.5 L 20 39.5 z M 24 43.5 L 24 44.5 L 24 45.5 L 24 46.5 L 24 47.5 L 28 47.5 L 28 46.5 L 28 45.5 L 28 44.5 L 28 43.5 L 24 43.5 z M 28 47.5 L 28 48.5 L 28 49.5 L 28 50.5 L 28 51.5 L 32 51.5 L 32 50.5 L 32 49.5 L 32 48.5 L 32 47.5 L 28 47.5 z M 32 47.5 L 36 47.5 L 36 46.5 L 36 45.5 L 36 44.5 L 36 43.5 L 32 43.5 L 32 44.5 L 32 45.5 L 32 46.5 L 32 47.5 z M 36 43.5 L 40 43.5 L 40 42.5 L 40 41.5 L 40 40.5 L 40 39.5 L 36 39.5 L 36 40.5 L 36 41.5 L 36 42.5 L 36 43.5 z M 40 39.5 L 44 39.5 L 44 38.5 L 44 37.5 L 44 36.5 L 44 35.5 L 40 35.5 L 40 36.5 L 40 37.5 L 40 38.5 L 40 39.5 z M 44 35.5 L 48 35.5 L 48 34.5 L 48 33.5 L 48 32.5 L 48 31.5 L 44 31.5 L 44 32.5 L 44 33.5 L 44 34.5 L 44 35.5 z M 48 31.5 L 52 31.5 L 52 30.5 L 52 29.5 L 52 28.5 L 52 27.5 L 48 27.5 L 48 28.5 L 48 29.5 L 48 30.5 L 48 31.5 z M 52 27.5 L 56 27.5 L 56 26.5 L 56 25.5 L 56 24.5 L 56 23.5 L 52 23.5 L 52 24.5 L 52 25.5 L 52 26.5 L 52 27.5 z M 56 23.5 L 60 23.5 L 60 22.5 L 60 21.5 L 60 20.5 L 60 19.5 L 56 19.5 L 56 20.5 L 56 21.5 L 56 22.5 L 56 23.5 z "
    />
  </g>
</svg>
