<svg
   xmlns="http://www.w3.org/2000/svg"
   shape-rendering="crispEdges"
   viewBox="0 -0.5 60 60">
  <g id="toggle">
    <path
       id="main"
       d="M 0 15.5 L 0 16.5 L 0 17.5 L 0 18.5 L 0 19.5 L 4 19.5 L 4 18.5 L 4 17.5 L 4 16.5 L 4 15.5 L 0 15.5 z M 4 19.5 L 4 20.5 L 4 21.5 L 4 22.5 L 4 23.5 L 8 23.5 L 8 22.5 L 8 21.5 L 8 20.5 L 8 19.5 L 4 19.5 z M 8 23.5 L 8 24.5 L 8 25.5 L 8 26.5 L 8 27.5 L 12 27.5 L 12 26.5 L 12 25.5 L 12 24.5 L 12 23.5 L 8 23.5 z M 12 27.5 L 12 28.5 L 12 29.5 L 12 30.5 L 12 31.5 L 16 31.5 L 16 30.5 L 16 29.5 L 16 28.5 L 16 27.5 L 12 27.5 z M 16 31.5 L 16 32.5 L 16 33.5 L 16 34.5 L 16 35.5 L 20 35.5 L 20 34.5 L 20 33.5 L 20 32.5 L 20 31.5 L 16 31.5 z M 20 35.5 L 20 36.5 L 20 37.5 L 20 38.5 L 20 39.5 L 24 39.5 L 24 38.5 L 24 37.5 L 24 36.5 L 24 35.5 L 20 35.5 z M 24 39.5 L 24 40.5 L 24 41.5 L 24 42.5 L 24 43.5 L 28 43.5 L 28 42.5 L 28 41.5 L 28 40.5 L 28 39.5 L 24 39.5 z M 28 43.5 L 28 44.5 L 28 45.5 L 28 46.5 L 28 47.5 L 32 47.5 L 32 46.5 L 32 45.5 L 32 44.5 L 32 43.5 L 28 43.5 z M 32 43.5 L 36 43.5 L 36 42.5 L 36 41.5 L 36 40.5 L 36 39.5 L 32 39.5 L 32 40.5 L 32 41.5 L 32 42.5 L 32 43.5 z M 36 39.5 L 40 39.5 L 40 38.5 L 40 37.5 L 40 36.5 L 40 35.5 L 36 35.5 L 36 36.5 L 36 37.5 L 36 38.5 L 36 39.5 z M 40 35.5 L 44 35.5 L 44 34.5 L 44 33.5 L 44 32.5 L 44 31.5 L 40 31.5 L 40 32.5 L 40 33.5 L 40 34.5 L 40 35.5 z M 44 31.5 L 48 31.5 L 48 30.5 L 48 29.5 L 48 28.5 L 48 27.5 L 44 27.5 L 44 28.5 L 44 29.5 L 44 30.5 L 44 31.5 z M 48 27.5 L 52 27.5 L 52 26.5 L 52 25.5 L 52 24.5 L 52 23.5 L 48 23.5 L 48 24.5 L 48 25.5 L 48 26.5 L 48 27.5 z M 52 23.5 L 56 23.5 L 56 22.5 L 56 21.5 L 56 20.5 L 56 19.5 L 52 19.5 L 52 20.5 L 52 21.5 L 52 22.5 L 52 23.5 z M 56 19.5 L 60 19.5 L 60 18.5 L 60 17.5 L 60 16.5 L 60 15.5 L 56 15.5 L 56 16.5 L 56 17.5 L 56 18.5 L 56 19.5 z "
      />
  </g>
</svg>
