<svg
   xmlns:svg="http://www.w3.org/2000/svg"
   xmlns="http://www.w3.org/2000/svg"
   shape-rendering="crispEdges"
   viewBox="0 -0.5 60 60">
  <g id="upload">
    <path
      id="main"
      d="M 0 -0.5 L 0 0.5 L 0 1.5 L 0 2.5 L 0 3.5 L 0 4.5 L 0 5.5 L 0 6.5 L 0 7.5 L 0 8.5 L 0 9.5 L 0 10.5 L 0 11.5 L 0 12.5 L 0 13.5 L 0 14.5 L 0 15.5 L 0 16.5 L 0 17.5 L 0 18.5 L 0 19.5 L 0 20.5 L 0 21.5 L 0 22.5 L 0 23.5 L 0 24.5 L 0 25.5 L 0 26.5 L 0 27.5 L 0 28.5 L 0 29.5 L 0 30.5 L 0 31.5 L 0 32.5 L 0 33.5 L 0 34.5 L 0 35.5 L 0 36.5 L 0 37.5 L 0 38.5 L 0 39.5 L 0 40.5 L 0 41.5 L 0 42.5 L 0 43.5 L 0 44.5 L 0 45.5 L 0 46.5 L 0 47.5 L 0 48.5 L 0 49.5 L 0 50.5 L 0 51.5 L 0 52.5 L 0 53.5 L 0 54.5 L 0 55.5 L 0 56.5 L 0 57.5 L 0 58.5 L 0 59.5 L 60 59.5 L 60 58.5 L 60 57.5 L 60 56.5 L 60 55.5 L 60 54.5 L 60 53.5 L 60 52.5 L 60 51.5 L 60 50.5 L 60 49.5 L 60 48.5 L 60 47.5 L 60 46.5 L 60 45.5 L 60 44.5 L 60 43.5 L 60 42.5 L 60 41.5 L 60 40.5 L 60 39.5 L 60 38.5 L 60 37.5 L 60 36.5 L 60 35.5 L 60 34.5 L 60 33.5 L 60 32.5 L 60 31.5 L 60 30.5 L 60 29.5 L 60 28.5 L 60 27.5 L 60 26.5 L 60 25.5 L 60 24.5 L 60 23.5 L 60 22.5 L 60 21.5 L 60 20.5 L 60 19.5 L 60 18.5 L 60 17.5 L 60 16.5 L 60 15.5 L 60 14.5 L 60 13.5 L 60 12.5 L 60 11.5 L 60 10.5 L 60 9.5 L 60 8.5 L 60 7.5 L 60 6.5 L 60 5.5 L 60 4.5 L 60 3.5 L 60 2.5 L 60 1.5 L 60 0.5 L 60 -0.5 L 44 -0.5 L 44 0.5 L 44 1.5 L 44 2.5 L 44 3.5 L 56 3.5 L 56 4.5 L 56 5.5 L 56 6.5 L 56 7.5 L 56 8.5 L 56 9.5 L 56 10.5 L 56 11.5 L 56 12.5 L 56 13.5 L 56 14.5 L 56 15.5 L 56 16.5 L 56 17.5 L 56 18.5 L 56 19.5 L 56 20.5 L 56 21.5 L 56 22.5 L 56 23.5 L 56 24.5 L 56 25.5 L 56 26.5 L 56 27.5 L 56 28.5 L 56 29.5 L 56 30.5 L 56 31.5 L 56 32.5 L 56 33.5 L 56 34.5 L 56 35.5 L 56 36.5 L 56 37.5 L 56 38.5 L 56 39.5 L 56 40.5 L 56 41.5 L 56 42.5 L 56 43.5 L 56 44.5 L 56 45.5 L 56 46.5 L 56 47.5 L 56 48.5 L 56 49.5 L 56 50.5 L 56 51.5 L 56 52.5 L 56 53.5 L 56 54.5 L 56 55.5 L 32 55.5 L 32 54.5 L 32 53.5 L 32 52.5 L 32 51.5 L 32 50.5 L 32 49.5 L 32 48.5 L 32 47.5 L 32 46.5 L 32 45.5 L 32 44.5 L 32 43.5 L 32 42.5 L 32 41.5 L 32 40.5 L 32 39.5 L 32 38.5 L 32 37.5 L 32 36.5 L 32 35.5 L 32 34.5 L 32 33.5 L 32 32.5 L 32 31.5 L 32 30.5 L 32 29.5 L 32 28.5 L 32 27.5 L 32 26.5 L 32 25.5 L 32 24.5 L 32 23.5 L 28 23.5 L 28 24.5 L 28 25.5 L 28 26.5 L 28 27.5 L 28 28.5 L 28 29.5 L 28 30.5 L 28 31.5 L 28 32.5 L 28 33.5 L 28 34.5 L 28 35.5 L 28 36.5 L 28 37.5 L 28 38.5 L 28 39.5 L 28 40.5 L 28 41.5 L 28 42.5 L 28 43.5 L 28 44.5 L 28 45.5 L 28 46.5 L 28 47.5 L 28 48.5 L 28 49.5 L 28 50.5 L 28 51.5 L 28 52.5 L 28 53.5 L 28 54.5 L 28 55.5 L 4 55.5 L 4 54.5 L 4 53.5 L 4 52.5 L 4 51.5 L 4 50.5 L 4 49.5 L 4 48.5 L 4 47.5 L 4 46.5 L 4 45.5 L 4 44.5 L 4 43.5 L 4 42.5 L 4 41.5 L 4 40.5 L 4 39.5 L 4 38.5 L 4 37.5 L 4 36.5 L 4 35.5 L 4 34.5 L 4 33.5 L 4 32.5 L 4 31.5 L 4 30.5 L 4 29.5 L 4 28.5 L 4 27.5 L 4 26.5 L 4 25.5 L 4 24.5 L 4 23.5 L 4 22.5 L 4 21.5 L 4 20.5 L 4 19.5 L 4 18.5 L 4 17.5 L 4 16.5 L 4 15.5 L 4 14.5 L 4 13.5 L 4 12.5 L 4 11.5 L 4 10.5 L 4 9.5 L 4 8.5 L 4 7.5 L 4 6.5 L 4 5.5 L 4 4.5 L 4 3.5 L 16 3.5 L 16 2.5 L 16 1.5 L 16 0.5 L 16 -0.5 L 0 -0.5 z M 28 11.5 L 28 12.5 L 28 13.5 L 28 14.5 L 28 15.5 L 32 15.5 L 32 14.5 L 32 13.5 L 32 12.5 L 32 11.5 L 28 11.5 z M 32 15.5 L 32 16.5 L 32 17.5 L 32 18.5 L 32 19.5 L 36 19.5 L 36 18.5 L 36 17.5 L 36 16.5 L 36 15.5 L 32 15.5 z M 36 19.5 L 36 20.5 L 36 21.5 L 36 22.5 L 36 23.5 L 40 23.5 L 40 22.5 L 40 21.5 L 40 20.5 L 40 19.5 L 36 19.5 z M 40 23.5 L 40 24.5 L 40 25.5 L 40 26.5 L 40 27.5 L 44 27.5 L 44 26.5 L 44 25.5 L 44 24.5 L 44 23.5 L 40 23.5 z M 44 27.5 L 44 28.5 L 44 29.5 L 44 30.5 L 44 31.5 L 48 31.5 L 48 30.5 L 48 29.5 L 48 28.5 L 48 27.5 L 44 27.5 z M 28 15.5 L 24 15.5 L 24 16.5 L 24 17.5 L 24 18.5 L 24 19.5 L 28 19.5 L 28 18.5 L 28 17.5 L 28 16.5 L 28 15.5 z M 24 19.5 L 20 19.5 L 20 20.5 L 20 21.5 L 20 22.5 L 20 23.5 L 24 23.5 L 24 22.5 L 24 21.5 L 24 20.5 L 24 19.5 z M 20 23.5 L 16 23.5 L 16 24.5 L 16 25.5 L 16 26.5 L 16 27.5 L 20 27.5 L 20 26.5 L 20 25.5 L 20 24.5 L 20 23.5 z M 16 27.5 L 12 27.5 L 12 28.5 L 12 29.5 L 12 30.5 L 12 31.5 L 16 31.5 L 16 30.5 L 16 29.5 L 16 28.5 L 16 27.5 z "
    />
  </g>
</svg>
