<svg
   xmlns="http://www.w3.org/2000/svg"
   shape-rendering="crispEdges"
   viewBox="0 -0.5 60 60">
  <g id="g19">
    <path
       fill="#000000"
       d="M 20 3.5 L 20 4.5 L 20 5.5 L 20 6.5 L 20 7.5 L 40 7.5 L 40 6.5 L 40 5.5 L 40 4.5 L 40 3.5 L 20 3.5 z M 40 7.5 L 40 8.5 L 40 9.5 L 40 10.5 L 40 11.5 L 44 11.5 L 44 10.5 L 44 9.5 L 44 8.5 L 44 7.5 L 40 7.5 z M 44 11.5 L 44 12.5 L 44 13.5 L 44 14.5 L 44 15.5 L 44 16.5 L 44 17.5 L 44 18.5 L 44 19.5 L 44 20.5 L 44 21.5 L 44 22.5 L 44 23.5 L 44 24.5 L 44 25.5 L 44 26.5 L 44 27.5 L 44 28.5 L 44 29.5 L 44 30.5 L 44 31.5 L 48 31.5 L 48 30.5 L 48 29.5 L 48 28.5 L 48 27.5 L 48 26.5 L 48 25.5 L 48 24.5 L 48 23.5 L 48 22.5 L 48 21.5 L 48 20.5 L 48 19.5 L 48 18.5 L 48 17.5 L 48 16.5 L 48 15.5 L 48 14.5 L 48 13.5 L 48 12.5 L 48 11.5 L 44 11.5 z M 44 31.5 L 40 31.5 L 40 32.5 L 40 33.5 L 40 34.5 L 40 35.5 L 44 35.5 L 44 34.5 L 44 33.5 L 44 32.5 L 44 31.5 z M 40 35.5 L 36 35.5 L 36 36.5 L 36 37.5 L 36 38.5 L 36 39.5 L 40 39.5 L 40 38.5 L 40 37.5 L 40 36.5 L 40 35.5 z M 40 39.5 L 40 40.5 L 40 41.5 L 40 42.5 L 40 43.5 L 44 43.5 L 44 42.5 L 44 41.5 L 44 40.5 L 44 39.5 L 40 39.5 z M 44 43.5 L 44 44.5 L 44 45.5 L 44 46.5 L 44 47.5 L 48 47.5 L 48 46.5 L 48 45.5 L 48 44.5 L 48 43.5 L 44 43.5 z M 48 47.5 L 48 48.5 L 48 49.5 L 48 50.5 L 48 51.5 L 48 52.5 L 48 53.5 L 48 54.5 L 48 55.5 L 48 56.5 L 48 57.5 L 48 58.5 L 48 59.5 L 52 59.5 L 52 58.5 L 52 57.5 L 52 56.5 L 52 55.5 L 52 54.5 L 52 53.5 L 52 52.5 L 52 51.5 L 52 50.5 L 52 49.5 L 52 48.5 L 52 47.5 L 48 47.5 z M 20 7.5 L 16 7.5 L 16 8.5 L 16 9.5 L 16 10.5 L 16 11.5 L 20 11.5 L 20 10.5 L 20 9.5 L 20 8.5 L 20 7.5 z M 16 11.5 L 12 11.5 L 12 12.5 L 12 13.5 L 12 14.5 L 12 15.5 L 12 16.5 L 12 17.5 L 12 18.5 L 12 19.5 L 12 20.5 L 12 21.5 L 12 22.5 L 12 23.5 L 12 24.5 L 12 25.5 L 12 26.5 L 12 27.5 L 12 28.5 L 12 29.5 L 12 30.5 L 12 31.5 L 16 31.5 L 16 30.5 L 16 29.5 L 16 28.5 L 16 27.5 L 16 26.5 L 16 25.5 L 16 24.5 L 16 23.5 L 16 22.5 L 16 21.5 L 16 20.5 L 16 19.5 L 16 18.5 L 16 17.5 L 16 16.5 L 16 15.5 L 16 14.5 L 16 13.5 L 16 12.5 L 16 11.5 z M 16 31.5 L 16 32.5 L 16 33.5 L 16 34.5 L 16 35.5 L 20 35.5 L 20 34.5 L 20 33.5 L 20 32.5 L 20 31.5 L 16 31.5 z M 20 35.5 L 20 36.5 L 20 37.5 L 20 38.5 L 20 39.5 L 24 39.5 L 24 38.5 L 24 37.5 L 24 36.5 L 24 35.5 L 20 35.5 z M 20 39.5 L 16 39.5 L 16 40.5 L 16 41.5 L 16 42.5 L 16 43.5 L 20 43.5 L 20 42.5 L 20 41.5 L 20 40.5 L 20 39.5 z M 16 43.5 L 12 43.5 L 12 44.5 L 12 45.5 L 12 46.5 L 12 47.5 L 16 47.5 L 16 46.5 L 16 45.5 L 16 44.5 L 16 43.5 z M 12 47.5 L 8 47.5 L 8 48.5 L 8 49.5 L 8 50.5 L 8 51.5 L 8 52.5 L 8 53.5 L 8 54.5 L 8 55.5 L 8 56.5 L 8 57.5 L 8 58.5 L 8 59.5 L 12 59.5 L 12 58.5 L 12 57.5 L 12 56.5 L 12 55.5 L 12 54.5 L 12 53.5 L 12 52.5 L 12 51.5 L 12 50.5 L 12 49.5 L 12 48.5 L 12 47.5 z "
      />
  </g>
</svg>
