<svg
   xmlns="http://www.w3.org/2000/svg"
   shape-rendering="crispEdges"
   viewBox="0 -0.5 60 60">
  <g id="g19">
    <path
      fill="#000000"
       d="M 12 3.5 L 12 4.5 L 12 5.5 L 12 6.5 L 12 7.5 L 32 7.5 L 32 6.5 L 32 5.5 L 32 4.5 L 32 3.5 L 12 3.5 z M 32 7.5 L 32 8.5 L 32 9.5 L 32 10.5 L 32 11.5 L 36 11.5 L 36 10.5 L 36 9.5 L 36 8.5 L 36 7.5 L 32 7.5 z M 36 11.5 L 36 12.5 L 36 13.5 L 36 14.5 L 36 15.5 L 36 16.5 L 36 17.5 L 36 18.5 L 36 19.5 L 36 20.5 L 36 21.5 L 36 22.5 L 36 23.5 L 36 24.5 L 36 25.5 L 36 26.5 L 36 27.5 L 36 28.5 L 36 29.5 L 36 30.5 L 36 31.5 L 40 31.5 L 40 30.5 L 40 29.5 L 40 28.5 L 40 27.5 L 40 26.5 L 40 25.5 L 40 24.5 L 40 23.5 L 40 22.5 L 40 21.5 L 40 20.5 L 40 19.5 L 40 18.5 L 40 17.5 L 40 16.5 L 40 15.5 L 40 14.5 L 40 13.5 L 40 12.5 L 40 11.5 L 36 11.5 z M 36 31.5 L 32 31.5 L 32 32.5 L 32 33.5 L 32 34.5 L 32 35.5 L 36 35.5 L 36 34.5 L 36 33.5 L 36 32.5 L 36 31.5 z M 32 35.5 L 28 35.5 L 28 36.5 L 28 37.5 L 28 38.5 L 28 39.5 L 32 39.5 L 32 38.5 L 32 37.5 L 32 36.5 L 32 35.5 z M 32 39.5 L 32 40.5 L 32 41.5 L 32 42.5 L 32 43.5 L 36 43.5 L 36 42.5 L 36 41.5 L 36 40.5 L 36 39.5 L 32 39.5 z M 36 43.5 L 36 44.5 L 36 45.5 L 36 46.5 L 36 47.5 L 40 47.5 L 40 46.5 L 40 45.5 L 40 44.5 L 40 43.5 L 36 43.5 z M 40 47.5 L 40 48.5 L 40 49.5 L 40 50.5 L 40 51.5 L 40 52.5 L 40 53.5 L 40 54.5 L 40 55.5 L 40 56.5 L 40 57.5 L 40 58.5 L 40 59.5 L 44 59.5 L 44 58.5 L 44 57.5 L 44 56.5 L 44 55.5 L 44 54.5 L 44 53.5 L 44 52.5 L 44 51.5 L 44 50.5 L 44 49.5 L 44 48.5 L 44 47.5 L 40 47.5 z M 12 7.5 L 8 7.5 L 8 8.5 L 8 9.5 L 8 10.5 L 8 11.5 L 12 11.5 L 12 10.5 L 12 9.5 L 12 8.5 L 12 7.5 z M 8 11.5 L 4 11.5 L 4 12.5 L 4 13.5 L 4 14.5 L 4 15.5 L 4 16.5 L 4 17.5 L 4 18.5 L 4 19.5 L 4 20.5 L 4 21.5 L 4 22.5 L 4 23.5 L 4 24.5 L 4 25.5 L 4 26.5 L 4 27.5 L 4 28.5 L 4 29.5 L 4 30.5 L 4 31.5 L 8 31.5 L 8 30.5 L 8 29.5 L 8 28.5 L 8 27.5 L 8 26.5 L 8 25.5 L 8 24.5 L 8 23.5 L 8 22.5 L 8 21.5 L 8 20.5 L 8 19.5 L 8 18.5 L 8 17.5 L 8 16.5 L 8 15.5 L 8 14.5 L 8 13.5 L 8 12.5 L 8 11.5 z M 8 31.5 L 8 32.5 L 8 33.5 L 8 34.5 L 8 35.5 L 12 35.5 L 12 34.5 L 12 33.5 L 12 32.5 L 12 31.5 L 8 31.5 z M 12 35.5 L 12 36.5 L 12 37.5 L 12 38.5 L 12 39.5 L 16 39.5 L 16 38.5 L 16 37.5 L 16 36.5 L 16 35.5 L 12 35.5 z M 12 39.5 L 8 39.5 L 8 40.5 L 8 41.5 L 8 42.5 L 8 43.5 L 12 43.5 L 12 42.5 L 12 41.5 L 12 40.5 L 12 39.5 z M 8 43.5 L 4 43.5 L 4 44.5 L 4 45.5 L 4 46.5 L 4 47.5 L 8 47.5 L 8 46.5 L 8 45.5 L 8 44.5 L 8 43.5 z M 4 47.5 L 0 47.5 L 0 48.5 L 0 49.5 L 0 50.5 L 0 51.5 L 0 52.5 L 0 53.5 L 0 54.5 L 0 55.5 L 0 56.5 L 0 57.5 L 0 58.5 L 0 59.5 L 4 59.5 L 4 58.5 L 4 57.5 L 4 56.5 L 4 55.5 L 4 54.5 L 4 53.5 L 4 52.5 L 4 51.5 L 4 50.5 L 4 49.5 L 4 48.5 L 4 47.5 z M 48 27.5 L 48 28.5 L 48 29.5 L 48 30.5 L 48 31.5 L 48 32.5 L 48 33.5 L 48 34.5 L 48 35.5 L 40 35.5 L 40 36.5 L 40 37.5 L 40 38.5 L 40 39.5 L 48 39.5 L 48 40.5 L 48 41.5 L 48 42.5 L 48 43.5 L 48 44.5 L 48 45.5 L 48 46.5 L 48 47.5 L 52 47.5 L 52 46.5 L 52 45.5 L 52 44.5 L 52 43.5 L 52 42.5 L 52 41.5 L 52 40.5 L 52 39.5 L 60 39.5 L 60 38.5 L 60 37.5 L 60 36.5 L 60 35.5 L 52 35.5 L 52 34.5 L 52 33.5 L 52 32.5 L 52 31.5 L 52 30.5 L 52 29.5 L 52 28.5 L 52 27.5 L 48 27.5 z "
    />
  </g>
</svg>
